<?xml version="1.0" encoding="utf-8" standalone="no"?>
<!DOCTYPE svg PUBLIC "-//W3C//DTD SVG 1.1//EN"
  "http://www.w3.org/Graphics/SVG/1.1/DTD/svg11.dtd">
<!-- Created with matplotlib (https://matplotlib.org/) -->
<svg height="720pt" version="1.1" viewBox="0 0 1584 720" width="1584pt" xmlns="http://www.w3.org/2000/svg" xmlns:xlink="http://www.w3.org/1999/xlink">
 <defs>
  <style type="text/css">
*{stroke-linecap:butt;stroke-linejoin:round;}
  </style>
 </defs>
 <g id="figure_1">
  <g id="patch_1">
   <path d="M 0 720 
L 1584 720 
L 1584 0 
L 0 0 
z
" style="fill:#ffffff;"/>
  </g>
  <g id="axes_1">
   <g id="patch_2">
    <path d="M 198 630 
L 1425.6 630 
L 1425.6 86.4 
L 198 86.4 
z
" style="fill:#ffffff;"/>
   </g>
   <g id="patch_3">
    <path clip-path="url(#pd7428f8cd1)" d="M 253.8 630 
L 269.51831 630 
L 269.51831 201.546798 
L 253.8 201.546798 
z
" style="fill:#1f77b4;"/>
   </g>
   <g id="patch_4">
    <path clip-path="url(#pd7428f8cd1)" d="M 276.254728 630 
L 291.973038 630 
L 291.973038 308.660099 
L 276.254728 308.660099 
z
" style="fill:#1f77b4;"/>
   </g>
   <g id="patch_5">
    <path clip-path="url(#pd7428f8cd1)" d="M 298.709457 630 
L 314.427767 630 
L 314.427767 433.625616 
L 298.709457 433.625616 
z
" style="fill:#1f77b4;"/>
   </g>
   <g id="patch_6">
    <path clip-path="url(#pd7428f8cd1)" d="M 321.164185 630 
L 336.882495 630 
L 336.882495 433.625616 
L 321.164185 433.625616 
z
" style="fill:#1f77b4;"/>
   </g>
   <g id="patch_7">
    <path clip-path="url(#pd7428f8cd1)" d="M 343.618913 630 
L 359.337223 630 
L 359.337223 451.477833 
L 343.618913 451.477833 
z
" style="fill:#1f77b4;"/>
   </g>
   <g id="patch_8">
    <path clip-path="url(#pd7428f8cd1)" d="M 366.073642 630 
L 381.791952 630 
L 381.791952 469.330049 
L 366.073642 469.330049 
z
" style="fill:#1f77b4;"/>
   </g>
   <g id="patch_9">
    <path clip-path="url(#pd7428f8cd1)" d="M 388.52837 630 
L 404.24668 630 
L 404.24668 487.182266 
L 388.52837 487.182266 
z
" style="fill:#1f77b4;"/>
   </g>
   <g id="patch_10">
    <path clip-path="url(#pd7428f8cd1)" d="M 410.983099 630 
L 426.701408 630 
L 426.701408 505.034483 
L 410.983099 505.034483 
z
" style="fill:#1f77b4;"/>
   </g>
   <g id="patch_11">
    <path clip-path="url(#pd7428f8cd1)" d="M 433.437827 630 
L 449.156137 630 
L 449.156137 522.8867 
L 433.437827 522.8867 
z
" style="fill:#1f77b4;"/>
   </g>
   <g id="patch_12">
    <path clip-path="url(#pd7428f8cd1)" d="M 455.892555 630 
L 471.610865 630 
L 471.610865 522.8867 
L 455.892555 522.8867 
z
" style="fill:#1f77b4;"/>
   </g>
   <g id="patch_13">
    <path clip-path="url(#pd7428f8cd1)" d="M 478.347284 630 
L 494.065594 630 
L 494.065594 522.8867 
L 478.347284 522.8867 
z
" style="fill:#1f77b4;"/>
   </g>
   <g id="patch_14">
    <path clip-path="url(#pd7428f8cd1)" d="M 500.802012 630 
L 516.520322 630 
L 516.520322 540.738916 
L 500.802012 540.738916 
z
" style="fill:#1f77b4;"/>
   </g>
   <g id="patch_15">
    <path clip-path="url(#pd7428f8cd1)" d="M 523.25674 630 
L 538.97505 630 
L 538.97505 540.738916 
L 523.25674 540.738916 
z
" style="fill:#1f77b4;"/>
   </g>
   <g id="patch_16">
    <path clip-path="url(#pd7428f8cd1)" d="M 545.711469 630 
L 561.429779 630 
L 561.429779 540.738916 
L 545.711469 540.738916 
z
" style="fill:#1f77b4;"/>
   </g>
   <g id="patch_17">
    <path clip-path="url(#pd7428f8cd1)" d="M 568.166197 630 
L 583.884507 630 
L 583.884507 540.738916 
L 568.166197 540.738916 
z
" style="fill:#1f77b4;"/>
   </g>
   <g id="patch_18">
    <path clip-path="url(#pd7428f8cd1)" d="M 590.620926 630 
L 606.339235 630 
L 606.339235 558.591133 
L 590.620926 558.591133 
z
" style="fill:#1f77b4;"/>
   </g>
   <g id="patch_19">
    <path clip-path="url(#pd7428f8cd1)" d="M 613.075654 630 
L 628.793964 630 
L 628.793964 558.591133 
L 613.075654 558.591133 
z
" style="fill:#1f77b4;"/>
   </g>
   <g id="patch_20">
    <path clip-path="url(#pd7428f8cd1)" d="M 635.530382 630 
L 651.248692 630 
L 651.248692 558.591133 
L 635.530382 558.591133 
z
" style="fill:#1f77b4;"/>
   </g>
   <g id="patch_21">
    <path clip-path="url(#pd7428f8cd1)" d="M 657.985111 630 
L 673.703421 630 
L 673.703421 558.591133 
L 657.985111 558.591133 
z
" style="fill:#1f77b4;"/>
   </g>
   <g id="patch_22">
    <path clip-path="url(#pd7428f8cd1)" d="M 680.439839 630 
L 696.158149 630 
L 696.158149 576.44335 
L 680.439839 576.44335 
z
" style="fill:#1f77b4;"/>
   </g>
   <g id="patch_23">
    <path clip-path="url(#pd7428f8cd1)" d="M 702.894567 630 
L 718.612877 630 
L 718.612877 576.44335 
L 702.894567 576.44335 
z
" style="fill:#1f77b4;"/>
   </g>
   <g id="patch_24">
    <path clip-path="url(#pd7428f8cd1)" d="M 725.349296 630 
L 741.067606 630 
L 741.067606 576.44335 
L 725.349296 576.44335 
z
" style="fill:#1f77b4;"/>
   </g>
   <g id="patch_25">
    <path clip-path="url(#pd7428f8cd1)" d="M 747.804024 630 
L 763.522334 630 
L 763.522334 576.44335 
L 747.804024 576.44335 
z
" style="fill:#1f77b4;"/>
   </g>
   <g id="patch_26">
    <path clip-path="url(#pd7428f8cd1)" d="M 770.258753 630 
L 785.977062 630 
L 785.977062 576.44335 
L 770.258753 576.44335 
z
" style="fill:#1f77b4;"/>
   </g>
   <g id="patch_27">
    <path clip-path="url(#pd7428f8cd1)" d="M 792.713481 630 
L 808.431791 630 
L 808.431791 576.44335 
L 792.713481 576.44335 
z
" style="fill:#1f77b4;"/>
   </g>
   <g id="patch_28">
    <path clip-path="url(#pd7428f8cd1)" d="M 815.168209 630 
L 830.886519 630 
L 830.886519 576.44335 
L 815.168209 576.44335 
z
" style="fill:#1f77b4;"/>
   </g>
   <g id="patch_29">
    <path clip-path="url(#pd7428f8cd1)" d="M 837.622938 630 
L 853.341247 630 
L 853.341247 594.295567 
L 837.622938 594.295567 
z
" style="fill:#1f77b4;"/>
   </g>
   <g id="patch_30">
    <path clip-path="url(#pd7428f8cd1)" d="M 860.077666 630 
L 875.795976 630 
L 875.795976 594.295567 
L 860.077666 594.295567 
z
" style="fill:#1f77b4;"/>
   </g>
   <g id="patch_31">
    <path clip-path="url(#pd7428f8cd1)" d="M 882.532394 630 
L 898.250704 630 
L 898.250704 594.295567 
L 882.532394 594.295567 
z
" style="fill:#1f77b4;"/>
   </g>
   <g id="patch_32">
    <path clip-path="url(#pd7428f8cd1)" d="M 904.987123 630 
L 920.705433 630 
L 920.705433 594.295567 
L 904.987123 594.295567 
z
" style="fill:#1f77b4;"/>
   </g>
   <g id="patch_33">
    <path clip-path="url(#pd7428f8cd1)" d="M 927.441851 630 
L 943.160161 630 
L 943.160161 594.295567 
L 927.441851 594.295567 
z
" style="fill:#1f77b4;"/>
   </g>
   <g id="patch_34">
    <path clip-path="url(#pd7428f8cd1)" d="M 949.896579 630 
L 965.614889 630 
L 965.614889 594.295567 
L 949.896579 594.295567 
z
" style="fill:#1f77b4;"/>
   </g>
   <g id="patch_35">
    <path clip-path="url(#pd7428f8cd1)" d="M 972.351308 630 
L 988.069618 630 
L 988.069618 594.295567 
L 972.351308 594.295567 
z
" style="fill:#1f77b4;"/>
   </g>
   <g id="patch_36">
    <path clip-path="url(#pd7428f8cd1)" d="M 994.806036 630 
L 1010.524346 630 
L 1010.524346 612.147783 
L 994.806036 612.147783 
z
" style="fill:#1f77b4;"/>
   </g>
   <g id="patch_37">
    <path clip-path="url(#pd7428f8cd1)" d="M 1017.260765 630 
L 1032.979074 630 
L 1032.979074 612.147783 
L 1017.260765 612.147783 
z
" style="fill:#1f77b4;"/>
   </g>
   <g id="patch_38">
    <path clip-path="url(#pd7428f8cd1)" d="M 1039.715493 630 
L 1055.433803 630 
L 1055.433803 612.147783 
L 1039.715493 612.147783 
z
" style="fill:#1f77b4;"/>
   </g>
   <g id="patch_39">
    <path clip-path="url(#pd7428f8cd1)" d="M 1062.170221 630 
L 1077.888531 630 
L 1077.888531 612.147783 
L 1062.170221 612.147783 
z
" style="fill:#1f77b4;"/>
   </g>
   <g id="patch_40">
    <path clip-path="url(#pd7428f8cd1)" d="M 1084.62495 630 
L 1100.34326 630 
L 1100.34326 612.147783 
L 1084.62495 612.147783 
z
" style="fill:#1f77b4;"/>
   </g>
   <g id="patch_41">
    <path clip-path="url(#pd7428f8cd1)" d="M 1107.079678 630 
L 1122.797988 630 
L 1122.797988 612.147783 
L 1107.079678 612.147783 
z
" style="fill:#1f77b4;"/>
   </g>
   <g id="patch_42">
    <path clip-path="url(#pd7428f8cd1)" d="M 1129.534406 630 
L 1145.252716 630 
L 1145.252716 612.147783 
L 1129.534406 612.147783 
z
" style="fill:#1f77b4;"/>
   </g>
   <g id="patch_43">
    <path clip-path="url(#pd7428f8cd1)" d="M 1151.989135 630 
L 1167.707445 630 
L 1167.707445 612.147783 
L 1151.989135 612.147783 
z
" style="fill:#1f77b4;"/>
   </g>
   <g id="patch_44">
    <path clip-path="url(#pd7428f8cd1)" d="M 1174.443863 630 
L 1190.162173 630 
L 1190.162173 612.147783 
L 1174.443863 612.147783 
z
" style="fill:#1f77b4;"/>
   </g>
   <g id="patch_45">
    <path clip-path="url(#pd7428f8cd1)" d="M 1196.898592 630 
L 1212.616901 630 
L 1212.616901 612.147783 
L 1196.898592 612.147783 
z
" style="fill:#1f77b4;"/>
   </g>
   <g id="patch_46">
    <path clip-path="url(#pd7428f8cd1)" d="M 1219.35332 630 
L 1235.07163 630 
L 1235.07163 612.147783 
L 1219.35332 612.147783 
z
" style="fill:#1f77b4;"/>
   </g>
   <g id="patch_47">
    <path clip-path="url(#pd7428f8cd1)" d="M 1241.808048 630 
L 1257.526358 630 
L 1257.526358 630 
L 1241.808048 630 
z
" style="fill:#1f77b4;"/>
   </g>
   <g id="patch_48">
    <path clip-path="url(#pd7428f8cd1)" d="M 1264.262777 630 
L 1279.981087 630 
L 1279.981087 630 
L 1264.262777 630 
z
" style="fill:#1f77b4;"/>
   </g>
   <g id="patch_49">
    <path clip-path="url(#pd7428f8cd1)" d="M 1286.717505 630 
L 1302.435815 630 
L 1302.435815 630 
L 1286.717505 630 
z
" style="fill:#1f77b4;"/>
   </g>
   <g id="patch_50">
    <path clip-path="url(#pd7428f8cd1)" d="M 1309.172233 630 
L 1324.890543 630 
L 1324.890543 630 
L 1309.172233 630 
z
" style="fill:#1f77b4;"/>
   </g>
   <g id="patch_51">
    <path clip-path="url(#pd7428f8cd1)" d="M 1331.626962 630 
L 1347.345272 630 
L 1347.345272 630 
L 1331.626962 630 
z
" style="fill:#1f77b4;"/>
   </g>
   <g id="patch_52">
    <path clip-path="url(#pd7428f8cd1)" d="M 1354.08169 630 
L 1369.8 630 
L 1369.8 630 
L 1354.08169 630 
z
" style="fill:#1f77b4;"/>
   </g>
   <g id="patch_53">
    <path clip-path="url(#pd7428f8cd1)" d="M 253.8 201.546798 
L 269.51831 201.546798 
L 269.51831 112.285714 
L 253.8 112.285714 
z
" style="fill:#ff7f0e;"/>
   </g>
   <g id="patch_54">
    <path clip-path="url(#pd7428f8cd1)" d="M 276.254728 308.660099 
L 291.973038 308.660099 
L 291.973038 183.694581 
L 276.254728 183.694581 
z
" style="fill:#ff7f0e;"/>
   </g>
   <g id="patch_55">
    <path clip-path="url(#pd7428f8cd1)" d="M 298.709457 433.625616 
L 314.427767 433.625616 
L 314.427767 380.068966 
L 298.709457 380.068966 
z
" style="fill:#ff7f0e;"/>
   </g>
   <g id="patch_56">
    <path clip-path="url(#pd7428f8cd1)" d="M 321.164185 433.625616 
L 336.882495 433.625616 
L 336.882495 397.921182 
L 321.164185 397.921182 
z
" style="fill:#ff7f0e;"/>
   </g>
   <g id="patch_57">
    <path clip-path="url(#pd7428f8cd1)" d="M 343.618913 451.477833 
L 359.337223 451.477833 
L 359.337223 451.477833 
L 343.618913 451.477833 
z
" style="fill:#ff7f0e;"/>
   </g>
   <g id="patch_58">
    <path clip-path="url(#pd7428f8cd1)" d="M 366.073642 469.330049 
L 381.791952 469.330049 
L 381.791952 433.625616 
L 366.073642 433.625616 
z
" style="fill:#ff7f0e;"/>
   </g>
   <g id="patch_59">
    <path clip-path="url(#pd7428f8cd1)" d="M 388.52837 487.182266 
L 404.24668 487.182266 
L 404.24668 433.625616 
L 388.52837 433.625616 
z
" style="fill:#ff7f0e;"/>
   </g>
   <g id="patch_60">
    <path clip-path="url(#pd7428f8cd1)" d="M 410.983099 505.034483 
L 426.701408 505.034483 
L 426.701408 487.182266 
L 410.983099 487.182266 
z
" style="fill:#ff7f0e;"/>
   </g>
   <g id="patch_61">
    <path clip-path="url(#pd7428f8cd1)" d="M 433.437827 522.8867 
L 449.156137 522.8867 
L 449.156137 505.034483 
L 433.437827 505.034483 
z
" style="fill:#ff7f0e;"/>
   </g>
   <g id="patch_62">
    <path clip-path="url(#pd7428f8cd1)" d="M 455.892555 522.8867 
L 471.610865 522.8867 
L 471.610865 522.8867 
L 455.892555 522.8867 
z
" style="fill:#ff7f0e;"/>
   </g>
   <g id="patch_63">
    <path clip-path="url(#pd7428f8cd1)" d="M 478.347284 522.8867 
L 494.065594 522.8867 
L 494.065594 505.034483 
L 478.347284 505.034483 
z
" style="fill:#ff7f0e;"/>
   </g>
   <g id="patch_64">
    <path clip-path="url(#pd7428f8cd1)" d="M 500.802012 540.738916 
L 516.520322 540.738916 
L 516.520322 522.8867 
L 500.802012 522.8867 
z
" style="fill:#ff7f0e;"/>
   </g>
   <g id="patch_65">
    <path clip-path="url(#pd7428f8cd1)" d="M 523.25674 540.738916 
L 538.97505 540.738916 
L 538.97505 540.738916 
L 523.25674 540.738916 
z
" style="fill:#ff7f0e;"/>
   </g>
   <g id="patch_66">
    <path clip-path="url(#pd7428f8cd1)" d="M 545.711469 540.738916 
L 561.429779 540.738916 
L 561.429779 505.034483 
L 545.711469 505.034483 
z
" style="fill:#ff7f0e;"/>
   </g>
   <g id="patch_67">
    <path clip-path="url(#pd7428f8cd1)" d="M 568.166197 540.738916 
L 583.884507 540.738916 
L 583.884507 522.8867 
L 568.166197 522.8867 
z
" style="fill:#ff7f0e;"/>
   </g>
   <g id="patch_68">
    <path clip-path="url(#pd7428f8cd1)" d="M 590.620926 558.591133 
L 606.339235 558.591133 
L 606.339235 540.738916 
L 590.620926 540.738916 
z
" style="fill:#ff7f0e;"/>
   </g>
   <g id="patch_69">
    <path clip-path="url(#pd7428f8cd1)" d="M 613.075654 558.591133 
L 628.793964 558.591133 
L 628.793964 558.591133 
L 613.075654 558.591133 
z
" style="fill:#ff7f0e;"/>
   </g>
   <g id="patch_70">
    <path clip-path="url(#pd7428f8cd1)" d="M 635.530382 558.591133 
L 651.248692 558.591133 
L 651.248692 558.591133 
L 635.530382 558.591133 
z
" style="fill:#ff7f0e;"/>
   </g>
   <g id="patch_71">
    <path clip-path="url(#pd7428f8cd1)" d="M 657.985111 558.591133 
L 673.703421 558.591133 
L 673.703421 540.738916 
L 657.985111 540.738916 
z
" style="fill:#ff7f0e;"/>
   </g>
   <g id="patch_72">
    <path clip-path="url(#pd7428f8cd1)" d="M 680.439839 576.44335 
L 696.158149 576.44335 
L 696.158149 576.44335 
L 680.439839 576.44335 
z
" style="fill:#ff7f0e;"/>
   </g>
   <g id="patch_73">
    <path clip-path="url(#pd7428f8cd1)" d="M 702.894567 576.44335 
L 718.612877 576.44335 
L 718.612877 558.591133 
L 702.894567 558.591133 
z
" style="fill:#ff7f0e;"/>
   </g>
   <g id="patch_74">
    <path clip-path="url(#pd7428f8cd1)" d="M 725.349296 576.44335 
L 741.067606 576.44335 
L 741.067606 558.591133 
L 725.349296 558.591133 
z
" style="fill:#ff7f0e;"/>
   </g>
   <g id="patch_75">
    <path clip-path="url(#pd7428f8cd1)" d="M 747.804024 576.44335 
L 763.522334 576.44335 
L 763.522334 576.44335 
L 747.804024 576.44335 
z
" style="fill:#ff7f0e;"/>
   </g>
   <g id="patch_76">
    <path clip-path="url(#pd7428f8cd1)" d="M 770.258753 576.44335 
L 785.977062 576.44335 
L 785.977062 576.44335 
L 770.258753 576.44335 
z
" style="fill:#ff7f0e;"/>
   </g>
   <g id="patch_77">
    <path clip-path="url(#pd7428f8cd1)" d="M 792.713481 576.44335 
L 808.431791 576.44335 
L 808.431791 558.591133 
L 792.713481 558.591133 
z
" style="fill:#ff7f0e;"/>
   </g>
   <g id="patch_78">
    <path clip-path="url(#pd7428f8cd1)" d="M 815.168209 576.44335 
L 830.886519 576.44335 
L 830.886519 576.44335 
L 815.168209 576.44335 
z
" style="fill:#ff7f0e;"/>
   </g>
   <g id="patch_79">
    <path clip-path="url(#pd7428f8cd1)" d="M 837.622938 594.295567 
L 853.341247 594.295567 
L 853.341247 558.591133 
L 837.622938 558.591133 
z
" style="fill:#ff7f0e;"/>
   </g>
   <g id="patch_80">
    <path clip-path="url(#pd7428f8cd1)" d="M 860.077666 594.295567 
L 875.795976 594.295567 
L 875.795976 594.295567 
L 860.077666 594.295567 
z
" style="fill:#ff7f0e;"/>
   </g>
   <g id="patch_81">
    <path clip-path="url(#pd7428f8cd1)" d="M 882.532394 594.295567 
L 898.250704 594.295567 
L 898.250704 594.295567 
L 882.532394 594.295567 
z
" style="fill:#ff7f0e;"/>
   </g>
   <g id="patch_82">
    <path clip-path="url(#pd7428f8cd1)" d="M 904.987123 594.295567 
L 920.705433 594.295567 
L 920.705433 594.295567 
L 904.987123 594.295567 
z
" style="fill:#ff7f0e;"/>
   </g>
   <g id="patch_83">
    <path clip-path="url(#pd7428f8cd1)" d="M 927.441851 594.295567 
L 943.160161 594.295567 
L 943.160161 594.295567 
L 927.441851 594.295567 
z
" style="fill:#ff7f0e;"/>
   </g>
   <g id="patch_84">
    <path clip-path="url(#pd7428f8cd1)" d="M 949.896579 594.295567 
L 965.614889 594.295567 
L 965.614889 594.295567 
L 949.896579 594.295567 
z
" style="fill:#ff7f0e;"/>
   </g>
   <g id="patch_85">
    <path clip-path="url(#pd7428f8cd1)" d="M 972.351308 594.295567 
L 988.069618 594.295567 
L 988.069618 594.295567 
L 972.351308 594.295567 
z
" style="fill:#ff7f0e;"/>
   </g>
   <g id="patch_86">
    <path clip-path="url(#pd7428f8cd1)" d="M 994.806036 612.147783 
L 1010.524346 612.147783 
L 1010.524346 594.295567 
L 994.806036 594.295567 
z
" style="fill:#ff7f0e;"/>
   </g>
   <g id="patch_87">
    <path clip-path="url(#pd7428f8cd1)" d="M 1017.260765 612.147783 
L 1032.979074 612.147783 
L 1032.979074 612.147783 
L 1017.260765 612.147783 
z
" style="fill:#ff7f0e;"/>
   </g>
   <g id="patch_88">
    <path clip-path="url(#pd7428f8cd1)" d="M 1039.715493 612.147783 
L 1055.433803 612.147783 
L 1055.433803 612.147783 
L 1039.715493 612.147783 
z
" style="fill:#ff7f0e;"/>
   </g>
   <g id="patch_89">
    <path clip-path="url(#pd7428f8cd1)" d="M 1062.170221 612.147783 
L 1077.888531 612.147783 
L 1077.888531 612.147783 
L 1062.170221 612.147783 
z
" style="fill:#ff7f0e;"/>
   </g>
   <g id="patch_90">
    <path clip-path="url(#pd7428f8cd1)" d="M 1084.62495 612.147783 
L 1100.34326 612.147783 
L 1100.34326 612.147783 
L 1084.62495 612.147783 
z
" style="fill:#ff7f0e;"/>
   </g>
   <g id="patch_91">
    <path clip-path="url(#pd7428f8cd1)" d="M 1107.079678 612.147783 
L 1122.797988 612.147783 
L 1122.797988 576.44335 
L 1107.079678 576.44335 
z
" style="fill:#ff7f0e;"/>
   </g>
   <g id="patch_92">
    <path clip-path="url(#pd7428f8cd1)" d="M 1129.534406 612.147783 
L 1145.252716 612.147783 
L 1145.252716 612.147783 
L 1129.534406 612.147783 
z
" style="fill:#ff7f0e;"/>
   </g>
   <g id="patch_93">
    <path clip-path="url(#pd7428f8cd1)" d="M 1151.989135 612.147783 
L 1167.707445 612.147783 
L 1167.707445 612.147783 
L 1151.989135 612.147783 
z
" style="fill:#ff7f0e;"/>
   </g>
   <g id="patch_94">
    <path clip-path="url(#pd7428f8cd1)" d="M 1174.443863 612.147783 
L 1190.162173 612.147783 
L 1190.162173 612.147783 
L 1174.443863 612.147783 
z
" style="fill:#ff7f0e;"/>
   </g>
   <g id="patch_95">
    <path clip-path="url(#pd7428f8cd1)" d="M 1196.898592 612.147783 
L 1212.616901 612.147783 
L 1212.616901 612.147783 
L 1196.898592 612.147783 
z
" style="fill:#ff7f0e;"/>
   </g>
   <g id="patch_96">
    <path clip-path="url(#pd7428f8cd1)" d="M 1219.35332 612.147783 
L 1235.07163 612.147783 
L 1235.07163 612.147783 
L 1219.35332 612.147783 
z
" style="fill:#ff7f0e;"/>
   </g>
   <g id="patch_97">
    <path clip-path="url(#pd7428f8cd1)" d="M 1241.808048 630 
L 1257.526358 630 
L 1257.526358 612.147783 
L 1241.808048 612.147783 
z
" style="fill:#ff7f0e;"/>
   </g>
   <g id="patch_98">
    <path clip-path="url(#pd7428f8cd1)" d="M 1264.262777 630 
L 1279.981087 630 
L 1279.981087 630 
L 1264.262777 630 
z
" style="fill:#ff7f0e;"/>
   </g>
   <g id="patch_99">
    <path clip-path="url(#pd7428f8cd1)" d="M 1286.717505 630 
L 1302.435815 630 
L 1302.435815 630 
L 1286.717505 630 
z
" style="fill:#ff7f0e;"/>
   </g>
   <g id="patch_100">
    <path clip-path="url(#pd7428f8cd1)" d="M 1309.172233 630 
L 1324.890543 630 
L 1324.890543 630 
L 1309.172233 630 
z
" style="fill:#ff7f0e;"/>
   </g>
   <g id="patch_101">
    <path clip-path="url(#pd7428f8cd1)" d="M 1331.626962 630 
L 1347.345272 630 
L 1347.345272 630 
L 1331.626962 630 
z
" style="fill:#ff7f0e;"/>
   </g>
   <g id="patch_102">
    <path clip-path="url(#pd7428f8cd1)" d="M 1354.08169 630 
L 1369.8 630 
L 1369.8 630 
L 1354.08169 630 
z
" style="fill:#ff7f0e;"/>
   </g>
   <g id="matplotlib.axis_1">
    <g id="xtick_1">
     <g id="line2d_1">
      <defs>
       <path d="M 0 0 
L 0 3.5 
" id="m6187c33af6" style="stroke:#000000;stroke-width:0.8;"/>
      </defs>
      <g>
       <use style="stroke:#000000;stroke-width:0.8;" x="261.659155" xlink:href="#m6187c33af6" y="630"/>
      </g>
     </g>
     <g id="text_1">
      <!-- CA -->
      <defs>
       <path d="M 64.40625 67.28125 
L 64.40625 56.890625 
Q 59.421875 61.53125 53.78125 63.8125 
Q 48.140625 66.109375 41.796875 66.109375 
Q 29.296875 66.109375 22.65625 58.46875 
Q 16.015625 50.828125 16.015625 36.375 
Q 16.015625 21.96875 22.65625 14.328125 
Q 29.296875 6.6875 41.796875 6.6875 
Q 48.140625 6.6875 53.78125 8.984375 
Q 59.421875 11.28125 64.40625 15.921875 
L 64.40625 5.609375 
Q 59.234375 2.09375 53.4375 0.328125 
Q 47.65625 -1.421875 41.21875 -1.421875 
Q 24.65625 -1.421875 15.125 8.703125 
Q 5.609375 18.84375 5.609375 36.375 
Q 5.609375 53.953125 15.125 64.078125 
Q 24.65625 74.21875 41.21875 74.21875 
Q 47.75 74.21875 53.53125 72.484375 
Q 59.328125 70.75 64.40625 67.28125 
z
" id="DejaVuSans-67"/>
       <path d="M 34.1875 63.1875 
L 20.796875 26.90625 
L 47.609375 26.90625 
z
M 28.609375 72.90625 
L 39.796875 72.90625 
L 67.578125 0 
L 57.328125 0 
L 50.6875 18.703125 
L 17.828125 18.703125 
L 11.1875 0 
L 0.78125 0 
z
" id="DejaVuSans-65"/>
      </defs>
      <g transform="translate(254.747436 644.598438)scale(0.1 -0.1)">
       <use xlink:href="#DejaVuSans-67"/>
       <use x="69.824219" xlink:href="#DejaVuSans-65"/>
      </g>
     </g>
    </g>
    <g id="xtick_2">
     <g id="line2d_2">
      <g>
       <use style="stroke:#000000;stroke-width:0.8;" x="284.113883" xlink:href="#m6187c33af6" y="630"/>
      </g>
     </g>
     <g id="text_2">
      <!-- TX -->
      <defs>
       <path d="M -0.296875 72.90625 
L 61.375 72.90625 
L 61.375 64.59375 
L 35.5 64.59375 
L 35.5 0 
L 25.59375 0 
L 25.59375 64.59375 
L -0.296875 64.59375 
z
" id="DejaVuSans-84"/>
       <path d="M 6.296875 72.90625 
L 16.890625 72.90625 
L 35.015625 45.796875 
L 53.21875 72.90625 
L 63.8125 72.90625 
L 40.375 37.890625 
L 65.375 0 
L 54.78125 0 
L 34.28125 31 
L 13.625 0 
L 2.984375 0 
L 29 38.921875 
z
" id="DejaVuSans-88"/>
      </defs>
      <g transform="translate(277.634977 644.598438)scale(0.1 -0.1)">
       <use xlink:href="#DejaVuSans-84"/>
       <use x="61.083984" xlink:href="#DejaVuSans-88"/>
      </g>
     </g>
    </g>
    <g id="xtick_3">
     <g id="line2d_3">
      <g>
       <use style="stroke:#000000;stroke-width:0.8;" x="306.568612" xlink:href="#m6187c33af6" y="630"/>
      </g>
     </g>
     <g id="text_3">
      <!-- OH -->
      <defs>
       <path d="M 39.40625 66.21875 
Q 28.65625 66.21875 22.328125 58.203125 
Q 16.015625 50.203125 16.015625 36.375 
Q 16.015625 22.609375 22.328125 14.59375 
Q 28.65625 6.59375 39.40625 6.59375 
Q 50.140625 6.59375 56.421875 14.59375 
Q 62.703125 22.609375 62.703125 36.375 
Q 62.703125 50.203125 56.421875 58.203125 
Q 50.140625 66.21875 39.40625 66.21875 
z
M 39.40625 74.21875 
Q 54.734375 74.21875 63.90625 63.9375 
Q 73.09375 53.65625 73.09375 36.375 
Q 73.09375 19.140625 63.90625 8.859375 
Q 54.734375 -1.421875 39.40625 -1.421875 
Q 24.03125 -1.421875 14.8125 8.828125 
Q 5.609375 19.09375 5.609375 36.375 
Q 5.609375 53.65625 14.8125 63.9375 
Q 24.03125 74.21875 39.40625 74.21875 
z
" id="DejaVuSans-79"/>
       <path d="M 9.8125 72.90625 
L 19.671875 72.90625 
L 19.671875 43.015625 
L 55.515625 43.015625 
L 55.515625 72.90625 
L 65.375 72.90625 
L 65.375 0 
L 55.515625 0 
L 55.515625 34.71875 
L 19.671875 34.71875 
L 19.671875 0 
L 9.8125 0 
z
" id="DejaVuSans-72"/>
      </defs>
      <g transform="translate(298.872518 644.598438)scale(0.1 -0.1)">
       <use xlink:href="#DejaVuSans-79"/>
       <use x="78.710938" xlink:href="#DejaVuSans-72"/>
      </g>
     </g>
    </g>
    <g id="xtick_4">
     <g id="line2d_4">
      <g>
       <use style="stroke:#000000;stroke-width:0.8;" x="329.02334" xlink:href="#m6187c33af6" y="630"/>
      </g>
     </g>
     <g id="text_4">
      <!-- FL -->
      <defs>
       <path d="M 9.8125 72.90625 
L 51.703125 72.90625 
L 51.703125 64.59375 
L 19.671875 64.59375 
L 19.671875 43.109375 
L 48.578125 43.109375 
L 48.578125 34.8125 
L 19.671875 34.8125 
L 19.671875 0 
L 9.8125 0 
z
" id="DejaVuSans-70"/>
       <path d="M 9.8125 72.90625 
L 19.671875 72.90625 
L 19.671875 8.296875 
L 55.171875 8.296875 
L 55.171875 0 
L 9.8125 0 
z
" id="DejaVuSans-76"/>
      </defs>
      <g transform="translate(323.361621 644.598438)scale(0.1 -0.1)">
       <use xlink:href="#DejaVuSans-70"/>
       <use x="57.519531" xlink:href="#DejaVuSans-76"/>
      </g>
     </g>
    </g>
    <g id="xtick_5">
     <g id="line2d_5">
      <g>
       <use style="stroke:#000000;stroke-width:0.8;" x="351.478068" xlink:href="#m6187c33af6" y="630"/>
      </g>
     </g>
     <g id="text_5">
      <!-- PA -->
      <defs>
       <path d="M 19.671875 64.796875 
L 19.671875 37.40625 
L 32.078125 37.40625 
Q 38.96875 37.40625 42.71875 40.96875 
Q 46.484375 44.53125 46.484375 51.125 
Q 46.484375 57.671875 42.71875 61.234375 
Q 38.96875 64.796875 32.078125 64.796875 
z
M 9.8125 72.90625 
L 32.078125 72.90625 
Q 44.34375 72.90625 50.609375 67.359375 
Q 56.890625 61.8125 56.890625 51.125 
Q 56.890625 40.328125 50.609375 34.8125 
Q 44.34375 29.296875 32.078125 29.296875 
L 19.671875 29.296875 
L 19.671875 0 
L 9.8125 0 
z
" id="DejaVuSans-80"/>
      </defs>
      <g transform="translate(345.361662 644.598438)scale(0.1 -0.1)">
       <use xlink:href="#DejaVuSans-80"/>
       <use x="53.927734" xlink:href="#DejaVuSans-65"/>
      </g>
     </g>
    </g>
    <g id="xtick_6">
     <g id="line2d_6">
      <g>
       <use style="stroke:#000000;stroke-width:0.8;" x="373.932797" xlink:href="#m6187c33af6" y="630"/>
      </g>
     </g>
     <g id="text_6">
      <!-- IL -->
      <defs>
       <path d="M 9.8125 72.90625 
L 19.671875 72.90625 
L 19.671875 0 
L 9.8125 0 
z
" id="DejaVuSans-73"/>
      </defs>
      <g transform="translate(369.671859 644.598438)scale(0.1 -0.1)">
       <use xlink:href="#DejaVuSans-73"/>
       <use x="29.492188" xlink:href="#DejaVuSans-76"/>
      </g>
     </g>
    </g>
    <g id="xtick_7">
     <g id="line2d_7">
      <g>
       <use style="stroke:#000000;stroke-width:0.8;" x="396.387525" xlink:href="#m6187c33af6" y="630"/>
      </g>
     </g>
     <g id="text_7">
      <!-- NY -->
      <defs>
       <path d="M 9.8125 72.90625 
L 23.09375 72.90625 
L 55.421875 11.921875 
L 55.421875 72.90625 
L 64.984375 72.90625 
L 64.984375 0 
L 51.703125 0 
L 19.390625 60.984375 
L 19.390625 0 
L 9.8125 0 
z
" id="DejaVuSans-78"/>
       <path d="M -0.203125 72.90625 
L 10.40625 72.90625 
L 30.609375 42.921875 
L 50.6875 72.90625 
L 61.28125 72.90625 
L 35.5 34.71875 
L 35.5 0 
L 25.59375 0 
L 25.59375 34.71875 
z
" id="DejaVuSans-89"/>
      </defs>
      <g transform="translate(389.592994 644.598438)scale(0.1 -0.1)">
       <use xlink:href="#DejaVuSans-78"/>
       <use x="74.804688" xlink:href="#DejaVuSans-89"/>
      </g>
     </g>
    </g>
    <g id="xtick_8">
     <g id="line2d_8">
      <g>
       <use style="stroke:#000000;stroke-width:0.8;" x="418.842254" xlink:href="#m6187c33af6" y="630"/>
      </g>
     </g>
     <g id="text_8">
      <!-- GA -->
      <defs>
       <path d="M 59.515625 10.40625 
L 59.515625 29.984375 
L 43.40625 29.984375 
L 43.40625 38.09375 
L 69.28125 38.09375 
L 69.28125 6.78125 
Q 63.578125 2.734375 56.6875 0.65625 
Q 49.8125 -1.421875 42 -1.421875 
Q 24.90625 -1.421875 15.25 8.5625 
Q 5.609375 18.5625 5.609375 36.375 
Q 5.609375 54.25 15.25 64.234375 
Q 24.90625 74.21875 42 74.21875 
Q 49.125 74.21875 55.546875 72.453125 
Q 61.96875 70.703125 67.390625 67.28125 
L 67.390625 56.78125 
Q 61.921875 61.421875 55.765625 63.765625 
Q 49.609375 66.109375 42.828125 66.109375 
Q 29.4375 66.109375 22.71875 58.640625 
Q 16.015625 51.171875 16.015625 36.375 
Q 16.015625 21.625 22.71875 14.15625 
Q 29.4375 6.6875 42.828125 6.6875 
Q 48.046875 6.6875 52.140625 7.59375 
Q 56.25 8.5 59.515625 10.40625 
z
" id="DejaVuSans-71"/>
      </defs>
      <g transform="translate(411.547722 644.598438)scale(0.1 -0.1)">
       <use xlink:href="#DejaVuSans-71"/>
       <use x="77.490234" xlink:href="#DejaVuSans-65"/>
      </g>
     </g>
    </g>
    <g id="xtick_9">
     <g id="line2d_9">
      <g>
       <use style="stroke:#000000;stroke-width:0.8;" x="441.296982" xlink:href="#m6187c33af6" y="630"/>
      </g>
     </g>
     <g id="text_9">
      <!-- IN -->
      <g transform="translate(436.081357 644.598438)scale(0.1 -0.1)">
       <use xlink:href="#DejaVuSans-73"/>
       <use x="29.492188" xlink:href="#DejaVuSans-78"/>
      </g>
     </g>
    </g>
    <g id="xtick_10">
     <g id="line2d_10">
      <g>
       <use style="stroke:#000000;stroke-width:0.8;" x="463.75171" xlink:href="#m6187c33af6" y="630"/>
      </g>
     </g>
     <g id="text_10">
      <!-- NJ -->
      <defs>
       <path d="M 9.8125 72.90625 
L 19.671875 72.90625 
L 19.671875 5.078125 
Q 19.671875 -8.109375 14.671875 -14.0625 
Q 9.671875 -20.015625 -1.421875 -20.015625 
L -5.171875 -20.015625 
L -5.171875 -11.71875 
L -2.09375 -11.71875 
Q 4.4375 -11.71875 7.125 -8.046875 
Q 9.8125 -4.390625 9.8125 5.078125 
z
" id="DejaVuSans-74"/>
      </defs>
      <g transform="translate(458.536085 644.598438)scale(0.1 -0.1)">
       <use xlink:href="#DejaVuSans-78"/>
       <use x="74.804688" xlink:href="#DejaVuSans-74"/>
      </g>
     </g>
    </g>
    <g id="xtick_11">
     <g id="line2d_11">
      <g>
       <use style="stroke:#000000;stroke-width:0.8;" x="486.206439" xlink:href="#m6187c33af6" y="630"/>
      </g>
     </g>
     <g id="text_11">
      <!-- NC -->
      <g transform="translate(478.974407 644.598438)scale(0.1 -0.1)">
       <use xlink:href="#DejaVuSans-78"/>
       <use x="74.804688" xlink:href="#DejaVuSans-67"/>
      </g>
     </g>
    </g>
    <g id="xtick_12">
     <g id="line2d_12">
      <g>
       <use style="stroke:#000000;stroke-width:0.8;" x="508.661167" xlink:href="#m6187c33af6" y="630"/>
      </g>
     </g>
     <g id="text_12">
      <!-- MO -->
      <defs>
       <path d="M 9.8125 72.90625 
L 24.515625 72.90625 
L 43.109375 23.296875 
L 61.8125 72.90625 
L 76.515625 72.90625 
L 76.515625 0 
L 66.890625 0 
L 66.890625 64.015625 
L 48.09375 14.015625 
L 38.1875 14.015625 
L 19.390625 64.015625 
L 19.390625 0 
L 9.8125 0 
z
" id="DejaVuSans-77"/>
      </defs>
      <g transform="translate(500.411167 644.598438)scale(0.1 -0.1)">
       <use xlink:href="#DejaVuSans-77"/>
       <use x="86.279297" xlink:href="#DejaVuSans-79"/>
      </g>
     </g>
    </g>
    <g id="xtick_13">
     <g id="line2d_13">
      <g>
       <use style="stroke:#000000;stroke-width:0.8;" x="531.115895" xlink:href="#m6187c33af6" y="630"/>
      </g>
     </g>
     <g id="text_13">
      <!-- KY -->
      <defs>
       <path d="M 9.8125 72.90625 
L 19.671875 72.90625 
L 19.671875 42.09375 
L 52.390625 72.90625 
L 65.09375 72.90625 
L 28.90625 38.921875 
L 67.671875 0 
L 54.6875 0 
L 19.671875 35.109375 
L 19.671875 0 
L 9.8125 0 
z
" id="DejaVuSans-75"/>
      </defs>
      <g transform="translate(524.964333 644.598438)scale(0.1 -0.1)">
       <use xlink:href="#DejaVuSans-75"/>
       <use x="61.951172" xlink:href="#DejaVuSans-89"/>
      </g>
     </g>
    </g>
    <g id="xtick_14">
     <g id="line2d_14">
      <g>
       <use style="stroke:#000000;stroke-width:0.8;" x="553.570624" xlink:href="#m6187c33af6" y="630"/>
      </g>
     </g>
     <g id="text_14">
      <!-- MI -->
      <g transform="translate(547.781561 644.598438)scale(0.1 -0.1)">
       <use xlink:href="#DejaVuSans-77"/>
       <use x="86.279297" xlink:href="#DejaVuSans-73"/>
      </g>
     </g>
    </g>
    <g id="xtick_15">
     <g id="line2d_15">
      <g>
       <use style="stroke:#000000;stroke-width:0.8;" x="576.025352" xlink:href="#m6187c33af6" y="630"/>
      </g>
     </g>
     <g id="text_15">
      <!-- WA -->
      <defs>
       <path d="M 3.328125 72.90625 
L 13.28125 72.90625 
L 28.609375 11.28125 
L 43.890625 72.90625 
L 54.984375 72.90625 
L 70.3125 11.28125 
L 85.59375 72.90625 
L 95.609375 72.90625 
L 77.296875 0 
L 64.890625 0 
L 49.515625 63.28125 
L 33.984375 0 
L 21.578125 0 
z
" id="DejaVuSans-87"/>
      </defs>
      <g transform="translate(567.93629 644.598438)scale(0.1 -0.1)">
       <use xlink:href="#DejaVuSans-87"/>
       <use x="93.376953" xlink:href="#DejaVuSans-65"/>
      </g>
     </g>
    </g>
    <g id="xtick_16">
     <g id="line2d_16">
      <g>
       <use style="stroke:#000000;stroke-width:0.8;" x="598.48008" xlink:href="#m6187c33af6" y="630"/>
      </g>
     </g>
     <g id="text_16">
      <!-- CO -->
      <g transform="translate(591.052737 644.598438)scale(0.1 -0.1)">
       <use xlink:href="#DejaVuSans-67"/>
       <use x="69.824219" xlink:href="#DejaVuSans-79"/>
      </g>
     </g>
    </g>
    <g id="xtick_17">
     <g id="line2d_17">
      <g>
       <use style="stroke:#000000;stroke-width:0.8;" x="620.934809" xlink:href="#m6187c33af6" y="630"/>
      </g>
     </g>
     <g id="text_17">
      <!-- MA -->
      <g transform="translate(613.200434 644.598438)scale(0.1 -0.1)">
       <use xlink:href="#DejaVuSans-77"/>
       <use x="86.279297" xlink:href="#DejaVuSans-65"/>
      </g>
     </g>
    </g>
    <g id="xtick_18">
     <g id="line2d_18">
      <g>
       <use style="stroke:#000000;stroke-width:0.8;" x="643.389537" xlink:href="#m6187c33af6" y="630"/>
      </g>
     </g>
     <g id="text_18">
      <!-- AR -->
      <defs>
       <path d="M 44.390625 34.1875 
Q 47.5625 33.109375 50.5625 29.59375 
Q 53.5625 26.078125 56.59375 19.921875 
L 66.609375 0 
L 56 0 
L 46.6875 18.703125 
Q 43.0625 26.03125 39.671875 28.421875 
Q 36.28125 30.8125 30.421875 30.8125 
L 19.671875 30.8125 
L 19.671875 0 
L 9.8125 0 
L 9.8125 72.90625 
L 32.078125 72.90625 
Q 44.578125 72.90625 50.734375 67.671875 
Q 56.890625 62.453125 56.890625 51.90625 
Q 56.890625 45.015625 53.6875 40.46875 
Q 50.484375 35.9375 44.390625 34.1875 
z
M 19.671875 64.796875 
L 19.671875 38.921875 
L 32.078125 38.921875 
Q 39.203125 38.921875 42.84375 42.21875 
Q 46.484375 45.515625 46.484375 51.90625 
Q 46.484375 58.296875 42.84375 61.546875 
Q 39.203125 64.796875 32.078125 64.796875 
z
" id="DejaVuSans-82"/>
      </defs>
      <g transform="translate(636.495006 644.598438)scale(0.1 -0.1)">
       <use xlink:href="#DejaVuSans-65"/>
       <use x="68.408203" xlink:href="#DejaVuSans-82"/>
      </g>
     </g>
    </g>
    <g id="xtick_19">
     <g id="line2d_19">
      <g>
       <use style="stroke:#000000;stroke-width:0.8;" x="665.844266" xlink:href="#m6187c33af6" y="630"/>
      </g>
     </g>
     <g id="text_19">
      <!-- AL -->
      <g transform="translate(659.638016 644.598438)scale(0.1 -0.1)">
       <use xlink:href="#DejaVuSans-65"/>
       <use x="68.408203" xlink:href="#DejaVuSans-76"/>
      </g>
     </g>
    </g>
    <g id="xtick_20">
     <g id="line2d_20">
      <g>
       <use style="stroke:#000000;stroke-width:0.8;" x="688.298994" xlink:href="#m6187c33af6" y="630"/>
      </g>
     </g>
     <g id="text_20">
      <!-- OK -->
      <g transform="translate(681.08415 644.598438)scale(0.1 -0.1)">
       <use xlink:href="#DejaVuSans-79"/>
       <use x="78.710938" xlink:href="#DejaVuSans-75"/>
      </g>
     </g>
    </g>
    <g id="xtick_21">
     <g id="line2d_21">
      <g>
       <use style="stroke:#000000;stroke-width:0.8;" x="710.753722" xlink:href="#m6187c33af6" y="630"/>
      </g>
     </g>
     <g id="text_21">
      <!-- MD -->
      <defs>
       <path d="M 19.671875 64.796875 
L 19.671875 8.109375 
L 31.59375 8.109375 
Q 46.6875 8.109375 53.6875 14.9375 
Q 60.6875 21.78125 60.6875 36.53125 
Q 60.6875 51.171875 53.6875 57.984375 
Q 46.6875 64.796875 31.59375 64.796875 
z
M 9.8125 72.90625 
L 30.078125 72.90625 
Q 51.265625 72.90625 61.171875 64.09375 
Q 71.09375 55.28125 71.09375 36.53125 
Q 71.09375 17.671875 61.125 8.828125 
Q 51.171875 0 30.078125 0 
L 9.8125 0 
z
" id="DejaVuSans-68"/>
      </defs>
      <g transform="translate(702.58966 644.598438)scale(0.1 -0.1)">
       <use xlink:href="#DejaVuSans-77"/>
       <use x="86.279297" xlink:href="#DejaVuSans-68"/>
      </g>
     </g>
    </g>
    <g id="xtick_22">
     <g id="line2d_22">
      <g>
       <use style="stroke:#000000;stroke-width:0.8;" x="733.208451" xlink:href="#m6187c33af6" y="630"/>
      </g>
     </g>
     <g id="text_22">
      <!-- OR -->
      <g transform="translate(725.798294 644.598438)scale(0.1 -0.1)">
       <use xlink:href="#DejaVuSans-79"/>
       <use x="78.710938" xlink:href="#DejaVuSans-82"/>
      </g>
     </g>
    </g>
    <g id="xtick_23">
     <g id="line2d_23">
      <g>
       <use style="stroke:#000000;stroke-width:0.8;" x="755.663179" xlink:href="#m6187c33af6" y="630"/>
      </g>
     </g>
     <g id="text_23">
      <!-- SC -->
      <defs>
       <path d="M 53.515625 70.515625 
L 53.515625 60.890625 
Q 47.90625 63.578125 42.921875 64.890625 
Q 37.9375 66.21875 33.296875 66.21875 
Q 25.25 66.21875 20.875 63.09375 
Q 16.5 59.96875 16.5 54.203125 
Q 16.5 49.359375 19.40625 46.890625 
Q 22.3125 44.4375 30.421875 42.921875 
L 36.375 41.703125 
Q 47.40625 39.59375 52.65625 34.296875 
Q 57.90625 29 57.90625 20.125 
Q 57.90625 9.515625 50.796875 4.046875 
Q 43.703125 -1.421875 29.984375 -1.421875 
Q 24.8125 -1.421875 18.96875 -0.25 
Q 13.140625 0.921875 6.890625 3.21875 
L 6.890625 13.375 
Q 12.890625 10.015625 18.65625 8.296875 
Q 24.421875 6.59375 29.984375 6.59375 
Q 38.421875 6.59375 43.015625 9.90625 
Q 47.609375 13.234375 47.609375 19.390625 
Q 47.609375 24.75 44.3125 27.78125 
Q 41.015625 30.8125 33.5 32.328125 
L 27.484375 33.5 
Q 16.453125 35.6875 11.515625 40.375 
Q 6.59375 45.0625 6.59375 53.421875 
Q 6.59375 63.09375 13.40625 68.65625 
Q 20.21875 74.21875 32.171875 74.21875 
Q 37.3125 74.21875 42.625 73.28125 
Q 47.953125 72.359375 53.515625 70.515625 
z
" id="DejaVuSans-83"/>
      </defs>
      <g transform="translate(748.997554 644.598438)scale(0.1 -0.1)">
       <use xlink:href="#DejaVuSans-83"/>
       <use x="63.476562" xlink:href="#DejaVuSans-67"/>
      </g>
     </g>
    </g>
    <g id="xtick_24">
     <g id="line2d_24">
      <g>
       <use style="stroke:#000000;stroke-width:0.8;" x="778.117907" xlink:href="#m6187c33af6" y="630"/>
      </g>
     </g>
     <g id="text_24">
      <!-- MS -->
      <g transform="translate(770.629626 644.598438)scale(0.1 -0.1)">
       <use xlink:href="#DejaVuSans-77"/>
       <use x="86.279297" xlink:href="#DejaVuSans-83"/>
      </g>
     </g>
    </g>
    <g id="xtick_25">
     <g id="line2d_25">
      <g>
       <use style="stroke:#000000;stroke-width:0.8;" x="800.572636" xlink:href="#m6187c33af6" y="630"/>
      </g>
     </g>
     <g id="text_25">
      <!-- VA -->
      <defs>
       <path d="M 28.609375 0 
L 0.78125 72.90625 
L 11.078125 72.90625 
L 34.1875 11.53125 
L 57.328125 72.90625 
L 67.578125 72.90625 
L 39.796875 0 
z
" id="DejaVuSans-86"/>
      </defs>
      <g transform="translate(794.050761 644.598438)scale(0.1 -0.1)">
       <use xlink:href="#DejaVuSans-86"/>
       <use x="62.033203" xlink:href="#DejaVuSans-65"/>
      </g>
     </g>
    </g>
    <g id="xtick_26">
     <g id="line2d_26">
      <g>
       <use style="stroke:#000000;stroke-width:0.8;" x="823.027364" xlink:href="#m6187c33af6" y="630"/>
      </g>
     </g>
     <g id="text_26">
      <!-- CT -->
      <g transform="translate(816.482052 644.598438)scale(0.1 -0.1)">
       <use xlink:href="#DejaVuSans-67"/>
       <use x="69.824219" xlink:href="#DejaVuSans-84"/>
      </g>
     </g>
    </g>
    <g id="xtick_27">
     <g id="line2d_27">
      <g>
       <use style="stroke:#000000;stroke-width:0.8;" x="845.482093" xlink:href="#m6187c33af6" y="630"/>
      </g>
     </g>
     <g id="text_27">
      <!-- WI -->
      <g transform="translate(839.063343 644.598438)scale(0.1 -0.1)">
       <use xlink:href="#DejaVuSans-87"/>
       <use x="98.876953" xlink:href="#DejaVuSans-73"/>
      </g>
     </g>
    </g>
    <g id="xtick_28">
     <g id="line2d_28">
      <g>
       <use style="stroke:#000000;stroke-width:0.8;" x="867.936821" xlink:href="#m6187c33af6" y="630"/>
      </g>
     </g>
     <g id="text_28">
      <!-- TN -->
      <g transform="translate(861.14229 644.598438)scale(0.1 -0.1)">
       <use xlink:href="#DejaVuSans-84"/>
       <use x="61.083984" xlink:href="#DejaVuSans-78"/>
      </g>
     </g>
    </g>
    <g id="xtick_29">
     <g id="line2d_29">
      <g>
       <use style="stroke:#000000;stroke-width:0.8;" x="890.391549" xlink:href="#m6187c33af6" y="630"/>
      </g>
     </g>
     <g id="text_29">
      <!-- UT -->
      <defs>
       <path d="M 8.6875 72.90625 
L 18.609375 72.90625 
L 18.609375 28.609375 
Q 18.609375 16.890625 22.84375 11.734375 
Q 27.09375 6.59375 36.625 6.59375 
Q 46.09375 6.59375 50.34375 11.734375 
Q 54.59375 16.890625 54.59375 28.609375 
L 54.59375 72.90625 
L 64.5 72.90625 
L 64.5 27.390625 
Q 64.5 13.140625 57.4375 5.859375 
Q 50.390625 -1.421875 36.625 -1.421875 
Q 22.796875 -1.421875 15.734375 5.859375 
Q 8.6875 13.140625 8.6875 27.390625 
z
" id="DejaVuSans-85"/>
      </defs>
      <g transform="translate(883.678268 644.598438)scale(0.1 -0.1)">
       <use xlink:href="#DejaVuSans-85"/>
       <use x="73.193359" xlink:href="#DejaVuSans-84"/>
      </g>
     </g>
    </g>
    <g id="xtick_30">
     <g id="line2d_30">
      <g>
       <use style="stroke:#000000;stroke-width:0.8;" x="912.846278" xlink:href="#m6187c33af6" y="630"/>
      </g>
     </g>
     <g id="text_30">
      <!-- ID -->
      <g transform="translate(907.521278 644.598438)scale(0.1 -0.1)">
       <use xlink:href="#DejaVuSans-73"/>
       <use x="29.492188" xlink:href="#DejaVuSans-68"/>
      </g>
     </g>
    </g>
    <g id="xtick_31">
     <g id="line2d_31">
      <g>
       <use style="stroke:#000000;stroke-width:0.8;" x="935.301006" xlink:href="#m6187c33af6" y="630"/>
      </g>
     </g>
     <g id="text_31">
      <!-- WV -->
      <g transform="translate(926.936944 644.598438)scale(0.1 -0.1)">
       <use xlink:href="#DejaVuSans-87"/>
       <use x="98.876953" xlink:href="#DejaVuSans-86"/>
      </g>
     </g>
    </g>
    <g id="xtick_32">
     <g id="line2d_32">
      <g>
       <use style="stroke:#000000;stroke-width:0.8;" x="957.755734" xlink:href="#m6187c33af6" y="630"/>
      </g>
     </g>
     <g id="text_32">
      <!-- NV -->
      <g transform="translate(950.594797 644.598438)scale(0.1 -0.1)">
       <use xlink:href="#DejaVuSans-78"/>
       <use x="74.804688" xlink:href="#DejaVuSans-86"/>
      </g>
     </g>
    </g>
    <g id="xtick_33">
     <g id="line2d_33">
      <g>
       <use style="stroke:#000000;stroke-width:0.8;" x="980.210463" xlink:href="#m6187c33af6" y="630"/>
      </g>
     </g>
     <g id="text_33">
      <!-- NE -->
      <defs>
       <path d="M 9.8125 72.90625 
L 55.90625 72.90625 
L 55.90625 64.59375 
L 19.671875 64.59375 
L 19.671875 43.015625 
L 54.390625 43.015625 
L 54.390625 34.71875 
L 19.671875 34.71875 
L 19.671875 8.296875 
L 56.78125 8.296875 
L 56.78125 0 
L 9.8125 0 
z
" id="DejaVuSans-69"/>
      </defs>
      <g transform="translate(973.310463 644.598438)scale(0.1 -0.1)">
       <use xlink:href="#DejaVuSans-78"/>
       <use x="74.804688" xlink:href="#DejaVuSans-69"/>
      </g>
     </g>
    </g>
    <g id="xtick_34">
     <g id="line2d_34">
      <g>
       <use style="stroke:#000000;stroke-width:0.8;" x="1002.665191" xlink:href="#m6187c33af6" y="630"/>
      </g>
     </g>
     <g id="text_34">
      <!-- MN -->
      <g transform="translate(994.610504 644.598438)scale(0.1 -0.1)">
       <use xlink:href="#DejaVuSans-77"/>
       <use x="86.279297" xlink:href="#DejaVuSans-78"/>
      </g>
     </g>
    </g>
    <g id="xtick_35">
     <g id="line2d_35">
      <g>
       <use style="stroke:#000000;stroke-width:0.8;" x="1025.11992" xlink:href="#m6187c33af6" y="630"/>
      </g>
     </g>
     <g id="text_35">
      <!-- KS -->
      <g transform="translate(1018.666795 644.598438)scale(0.1 -0.1)">
       <use xlink:href="#DejaVuSans-75"/>
       <use x="65.576172" xlink:href="#DejaVuSans-83"/>
      </g>
     </g>
    </g>
    <g id="xtick_36">
     <g id="line2d_36">
      <g>
       <use style="stroke:#000000;stroke-width:0.8;" x="1047.574648" xlink:href="#m6187c33af6" y="630"/>
      </g>
     </g>
     <g id="text_36">
      <!-- AK -->
      <g transform="translate(1040.875429 644.598438)scale(0.1 -0.1)">
       <use xlink:href="#DejaVuSans-65"/>
       <use x="68.408203" xlink:href="#DejaVuSans-75"/>
      </g>
     </g>
    </g>
    <g id="xtick_37">
     <g id="line2d_37">
      <g>
       <use style="stroke:#000000;stroke-width:0.8;" x="1070.029376" xlink:href="#m6187c33af6" y="630"/>
      </g>
     </g>
     <g id="text_37">
      <!-- HI -->
      <g transform="translate(1064.79422 644.598438)scale(0.1 -0.1)">
       <use xlink:href="#DejaVuSans-72"/>
       <use x="75.195312" xlink:href="#DejaVuSans-73"/>
      </g>
     </g>
    </g>
    <g id="xtick_38">
     <g id="line2d_38">
      <g>
       <use style="stroke:#000000;stroke-width:0.8;" x="1092.484105" xlink:href="#m6187c33af6" y="630"/>
      </g>
     </g>
     <g id="text_38">
      <!-- ND -->
      <g transform="translate(1084.89348 644.598438)scale(0.1 -0.1)">
       <use xlink:href="#DejaVuSans-78"/>
       <use x="74.804688" xlink:href="#DejaVuSans-68"/>
      </g>
     </g>
    </g>
    <g id="xtick_39">
     <g id="line2d_39">
      <g>
       <use style="stroke:#000000;stroke-width:0.8;" x="1114.938833" xlink:href="#m6187c33af6" y="630"/>
      </g>
     </g>
     <g id="text_39">
      <!-- LA -->
      <g transform="translate(1108.620083 644.598438)scale(0.1 -0.1)">
       <use xlink:href="#DejaVuSans-76"/>
       <use x="57.962891" xlink:href="#DejaVuSans-65"/>
      </g>
     </g>
    </g>
    <g id="xtick_40">
     <g id="line2d_40">
      <g>
       <use style="stroke:#000000;stroke-width:0.8;" x="1137.393561" xlink:href="#m6187c33af6" y="630"/>
      </g>
     </g>
     <g id="text_40">
      <!-- ME -->
      <g transform="translate(1129.920124 644.598438)scale(0.1 -0.1)">
       <use xlink:href="#DejaVuSans-77"/>
       <use x="86.279297" xlink:href="#DejaVuSans-69"/>
      </g>
     </g>
    </g>
    <g id="xtick_41">
     <g id="line2d_41">
      <g>
       <use style="stroke:#000000;stroke-width:0.8;" x="1159.84829" xlink:href="#m6187c33af6" y="630"/>
      </g>
     </g>
     <g id="text_41">
      <!-- WY -->
      <g transform="translate(1151.850633 644.598438)scale(0.1 -0.1)">
       <use xlink:href="#DejaVuSans-87"/>
       <use x="98.876953" xlink:href="#DejaVuSans-89"/>
      </g>
     </g>
    </g>
    <g id="xtick_42">
     <g id="line2d_42">
      <g>
       <use style="stroke:#000000;stroke-width:0.8;" x="1182.303018" xlink:href="#m6187c33af6" y="630"/>
      </g>
     </g>
     <g id="text_42">
      <!-- RI -->
      <g transform="translate(1177.353799 644.598438)scale(0.1 -0.1)">
       <use xlink:href="#DejaVuSans-82"/>
       <use x="69.482422" xlink:href="#DejaVuSans-73"/>
      </g>
     </g>
    </g>
    <g id="xtick_43">
     <g id="line2d_43">
      <g>
       <use style="stroke:#000000;stroke-width:0.8;" x="1204.757746" xlink:href="#m6187c33af6" y="630"/>
      </g>
     </g>
     <g id="text_43">
      <!-- VT -->
      <g transform="translate(1198.283528 644.598438)scale(0.1 -0.1)">
       <use xlink:href="#DejaVuSans-86"/>
       <use x="68.408203" xlink:href="#DejaVuSans-84"/>
      </g>
     </g>
    </g>
    <g id="xtick_44">
     <g id="line2d_44">
      <g>
       <use style="stroke:#000000;stroke-width:0.8;" x="1227.212475" xlink:href="#m6187c33af6" y="630"/>
      </g>
     </g>
     <g id="text_44">
      <!-- DE -->
      <g transform="translate(1220.2031 644.598438)scale(0.1 -0.1)">
       <use xlink:href="#DejaVuSans-68"/>
       <use x="77.001953" xlink:href="#DejaVuSans-69"/>
      </g>
     </g>
    </g>
    <g id="xtick_45">
     <g id="line2d_45">
      <g>
       <use style="stroke:#000000;stroke-width:0.8;" x="1249.667203" xlink:href="#m6187c33af6" y="630"/>
      </g>
     </g>
     <g id="text_45">
      <!-- MT -->
      <g transform="translate(1242.299234 644.598438)scale(0.1 -0.1)">
       <use xlink:href="#DejaVuSans-77"/>
       <use x="86.279297" xlink:href="#DejaVuSans-84"/>
      </g>
     </g>
    </g>
    <g id="xtick_46">
     <g id="line2d_46">
      <g>
       <use style="stroke:#000000;stroke-width:0.8;" x="1272.121932" xlink:href="#m6187c33af6" y="630"/>
      </g>
     </g>
     <g id="text_46">
      <!-- NH -->
      <g transform="translate(1264.62115 644.598438)scale(0.1 -0.1)">
       <use xlink:href="#DejaVuSans-78"/>
       <use x="74.804688" xlink:href="#DejaVuSans-72"/>
      </g>
     </g>
    </g>
    <g id="xtick_47">
     <g id="line2d_47">
      <g>
       <use style="stroke:#000000;stroke-width:0.8;" x="1294.57666" xlink:href="#m6187c33af6" y="630"/>
      </g>
     </g>
     <g id="text_47">
      <!-- NM -->
      <g transform="translate(1286.521972 644.598438)scale(0.1 -0.1)">
       <use xlink:href="#DejaVuSans-78"/>
       <use x="74.804688" xlink:href="#DejaVuSans-77"/>
      </g>
     </g>
    </g>
    <g id="xtick_48">
     <g id="line2d_48">
      <g>
       <use style="stroke:#000000;stroke-width:0.8;" x="1317.031388" xlink:href="#m6187c33af6" y="630"/>
      </g>
     </g>
     <g id="text_48">
      <!-- AZ -->
      <defs>
       <path d="M 5.609375 72.90625 
L 62.890625 72.90625 
L 62.890625 65.375 
L 16.796875 8.296875 
L 64.015625 8.296875 
L 64.015625 0 
L 4.5 0 
L 4.5 7.515625 
L 50.59375 64.59375 
L 5.609375 64.59375 
z
" id="DejaVuSans-90"/>
      </defs>
      <g transform="translate(1310.186076 644.598438)scale(0.1 -0.1)">
       <use xlink:href="#DejaVuSans-65"/>
       <use x="68.408203" xlink:href="#DejaVuSans-90"/>
      </g>
     </g>
    </g>
    <g id="xtick_49">
     <g id="line2d_49">
      <g>
       <use style="stroke:#000000;stroke-width:0.8;" x="1339.486117" xlink:href="#m6187c33af6" y="630"/>
      </g>
     </g>
     <g id="text_49">
      <!-- IA -->
      <g transform="translate(1334.590804 644.598438)scale(0.1 -0.1)">
       <use xlink:href="#DejaVuSans-73"/>
       <use x="29.492188" xlink:href="#DejaVuSans-65"/>
      </g>
     </g>
    </g>
    <g id="xtick_50">
     <g id="line2d_50">
      <g>
       <use style="stroke:#000000;stroke-width:0.8;" x="1361.940845" xlink:href="#m6187c33af6" y="630"/>
      </g>
     </g>
     <g id="text_50">
      <!-- SD -->
      <g transform="translate(1354.916626 644.598438)scale(0.1 -0.1)">
       <use xlink:href="#DejaVuSans-83"/>
       <use x="63.476562" xlink:href="#DejaVuSans-68"/>
      </g>
     </g>
    </g>
   </g>
   <g id="matplotlib.axis_2">
    <g id="ytick_1">
     <g id="line2d_51">
      <defs>
       <path d="M 0 0 
L -3.5 0 
" id="me905710126" style="stroke:#000000;stroke-width:0.8;"/>
      </defs>
      <g>
       <use style="stroke:#000000;stroke-width:0.8;" x="198" xlink:href="#me905710126" y="630"/>
      </g>
     </g>
     <g id="text_51">
      <!-- 0 -->
      <defs>
       <path d="M 31.78125 66.40625 
Q 24.171875 66.40625 20.328125 58.90625 
Q 16.5 51.421875 16.5 36.375 
Q 16.5 21.390625 20.328125 13.890625 
Q 24.171875 6.390625 31.78125 6.390625 
Q 39.453125 6.390625 43.28125 13.890625 
Q 47.125 21.390625 47.125 36.375 
Q 47.125 51.421875 43.28125 58.90625 
Q 39.453125 66.40625 31.78125 66.40625 
z
M 31.78125 74.21875 
Q 44.046875 74.21875 50.515625 64.515625 
Q 56.984375 54.828125 56.984375 36.375 
Q 56.984375 17.96875 50.515625 8.265625 
Q 44.046875 -1.421875 31.78125 -1.421875 
Q 19.53125 -1.421875 13.0625 8.265625 
Q 6.59375 17.96875 6.59375 36.375 
Q 6.59375 54.828125 13.0625 64.515625 
Q 19.53125 74.21875 31.78125 74.21875 
z
" id="DejaVuSans-48"/>
      </defs>
      <g transform="translate(184.6375 633.799219)scale(0.1 -0.1)">
       <use xlink:href="#DejaVuSans-48"/>
      </g>
     </g>
    </g>
    <g id="ytick_2">
     <g id="line2d_52">
      <g>
       <use style="stroke:#000000;stroke-width:0.8;" x="198" xlink:href="#me905710126" y="540.738916"/>
      </g>
     </g>
     <g id="text_52">
      <!-- 5 -->
      <defs>
       <path d="M 10.796875 72.90625 
L 49.515625 72.90625 
L 49.515625 64.59375 
L 19.828125 64.59375 
L 19.828125 46.734375 
Q 21.96875 47.46875 24.109375 47.828125 
Q 26.265625 48.1875 28.421875 48.1875 
Q 40.625 48.1875 47.75 41.5 
Q 54.890625 34.8125 54.890625 23.390625 
Q 54.890625 11.625 47.5625 5.09375 
Q 40.234375 -1.421875 26.90625 -1.421875 
Q 22.3125 -1.421875 17.546875 -0.640625 
Q 12.796875 0.140625 7.71875 1.703125 
L 7.71875 11.625 
Q 12.109375 9.234375 16.796875 8.0625 
Q 21.484375 6.890625 26.703125 6.890625 
Q 35.15625 6.890625 40.078125 11.328125 
Q 45.015625 15.765625 45.015625 23.390625 
Q 45.015625 31 40.078125 35.4375 
Q 35.15625 39.890625 26.703125 39.890625 
Q 22.75 39.890625 18.8125 39.015625 
Q 14.890625 38.140625 10.796875 36.28125 
z
" id="DejaVuSans-53"/>
      </defs>
      <g transform="translate(184.6375 544.538135)scale(0.1 -0.1)">
       <use xlink:href="#DejaVuSans-53"/>
      </g>
     </g>
    </g>
    <g id="ytick_3">
     <g id="line2d_53">
      <g>
       <use style="stroke:#000000;stroke-width:0.8;" x="198" xlink:href="#me905710126" y="451.477833"/>
      </g>
     </g>
     <g id="text_53">
      <!-- 10 -->
      <defs>
       <path d="M 12.40625 8.296875 
L 28.515625 8.296875 
L 28.515625 63.921875 
L 10.984375 60.40625 
L 10.984375 69.390625 
L 28.421875 72.90625 
L 38.28125 72.90625 
L 38.28125 8.296875 
L 54.390625 8.296875 
L 54.390625 0 
L 12.40625 0 
z
" id="DejaVuSans-49"/>
      </defs>
      <g transform="translate(178.275 455.277051)scale(0.1 -0.1)">
       <use xlink:href="#DejaVuSans-49"/>
       <use x="63.623047" xlink:href="#DejaVuSans-48"/>
      </g>
     </g>
    </g>
    <g id="ytick_4">
     <g id="line2d_54">
      <g>
       <use style="stroke:#000000;stroke-width:0.8;" x="198" xlink:href="#me905710126" y="362.216749"/>
      </g>
     </g>
     <g id="text_54">
      <!-- 15 -->
      <g transform="translate(178.275 366.015968)scale(0.1 -0.1)">
       <use xlink:href="#DejaVuSans-49"/>
       <use x="63.623047" xlink:href="#DejaVuSans-53"/>
      </g>
     </g>
    </g>
    <g id="ytick_5">
     <g id="line2d_55">
      <g>
       <use style="stroke:#000000;stroke-width:0.8;" x="198" xlink:href="#me905710126" y="272.955665"/>
      </g>
     </g>
     <g id="text_55">
      <!-- 20 -->
      <defs>
       <path d="M 19.1875 8.296875 
L 53.609375 8.296875 
L 53.609375 0 
L 7.328125 0 
L 7.328125 8.296875 
Q 12.9375 14.109375 22.625 23.890625 
Q 32.328125 33.6875 34.8125 36.53125 
Q 39.546875 41.84375 41.421875 45.53125 
Q 43.3125 49.21875 43.3125 52.78125 
Q 43.3125 58.59375 39.234375 62.25 
Q 35.15625 65.921875 28.609375 65.921875 
Q 23.96875 65.921875 18.8125 64.3125 
Q 13.671875 62.703125 7.8125 59.421875 
L 7.8125 69.390625 
Q 13.765625 71.78125 18.9375 73 
Q 24.125 74.21875 28.421875 74.21875 
Q 39.75 74.21875 46.484375 68.546875 
Q 53.21875 62.890625 53.21875 53.421875 
Q 53.21875 48.921875 51.53125 44.890625 
Q 49.859375 40.875 45.40625 35.40625 
Q 44.1875 33.984375 37.640625 27.21875 
Q 31.109375 20.453125 19.1875 8.296875 
z
" id="DejaVuSans-50"/>
      </defs>
      <g transform="translate(178.275 276.754884)scale(0.1 -0.1)">
       <use xlink:href="#DejaVuSans-50"/>
       <use x="63.623047" xlink:href="#DejaVuSans-48"/>
      </g>
     </g>
    </g>
    <g id="ytick_6">
     <g id="line2d_56">
      <g>
       <use style="stroke:#000000;stroke-width:0.8;" x="198" xlink:href="#me905710126" y="183.694581"/>
      </g>
     </g>
     <g id="text_56">
      <!-- 25 -->
      <g transform="translate(178.275 187.4938)scale(0.1 -0.1)">
       <use xlink:href="#DejaVuSans-50"/>
       <use x="63.623047" xlink:href="#DejaVuSans-53"/>
      </g>
     </g>
    </g>
    <g id="ytick_7">
     <g id="line2d_57">
      <g>
       <use style="stroke:#000000;stroke-width:0.8;" x="198" xlink:href="#me905710126" y="94.433498"/>
      </g>
     </g>
     <g id="text_57">
      <!-- 30 -->
      <defs>
       <path d="M 40.578125 39.3125 
Q 47.65625 37.796875 51.625 33 
Q 55.609375 28.21875 55.609375 21.1875 
Q 55.609375 10.40625 48.1875 4.484375 
Q 40.765625 -1.421875 27.09375 -1.421875 
Q 22.515625 -1.421875 17.65625 -0.515625 
Q 12.796875 0.390625 7.625 2.203125 
L 7.625 11.71875 
Q 11.71875 9.328125 16.59375 8.109375 
Q 21.484375 6.890625 26.8125 6.890625 
Q 36.078125 6.890625 40.9375 10.546875 
Q 45.796875 14.203125 45.796875 21.1875 
Q 45.796875 27.640625 41.28125 31.265625 
Q 36.765625 34.90625 28.71875 34.90625 
L 20.21875 34.90625 
L 20.21875 43.015625 
L 29.109375 43.015625 
Q 36.375 43.015625 40.234375 45.921875 
Q 44.09375 48.828125 44.09375 54.296875 
Q 44.09375 59.90625 40.109375 62.90625 
Q 36.140625 65.921875 28.71875 65.921875 
Q 24.65625 65.921875 20.015625 65.03125 
Q 15.375 64.15625 9.8125 62.3125 
L 9.8125 71.09375 
Q 15.4375 72.65625 20.34375 73.4375 
Q 25.25 74.21875 29.59375 74.21875 
Q 40.828125 74.21875 47.359375 69.109375 
Q 53.90625 64.015625 53.90625 55.328125 
Q 53.90625 49.265625 50.4375 45.09375 
Q 46.96875 40.921875 40.578125 39.3125 
z
" id="DejaVuSans-51"/>
      </defs>
      <g transform="translate(178.275 98.232716)scale(0.1 -0.1)">
       <use xlink:href="#DejaVuSans-51"/>
       <use x="63.623047" xlink:href="#DejaVuSans-48"/>
      </g>
     </g>
    </g>
   </g>
   <g id="patch_103">
    <path d="M 198 630 
L 198 86.4 
" style="fill:none;stroke:#000000;stroke-linecap:square;stroke-linejoin:miter;stroke-width:0.8;"/>
   </g>
   <g id="patch_104">
    <path d="M 1425.6 630 
L 1425.6 86.4 
" style="fill:none;stroke:#000000;stroke-linecap:square;stroke-linejoin:miter;stroke-width:0.8;"/>
   </g>
   <g id="patch_105">
    <path d="M 198 630 
L 1425.6 630 
" style="fill:none;stroke:#000000;stroke-linecap:square;stroke-linejoin:miter;stroke-width:0.8;"/>
   </g>
   <g id="patch_106">
    <path d="M 198 86.4 
L 1425.6 86.4 
" style="fill:none;stroke:#000000;stroke-linecap:square;stroke-linejoin:miter;stroke-width:0.8;"/>
   </g>
   <g id="text_58">
    <!-- Number of Candidates Per State with PAC Donations Greater Than 45% of Total Donations -->
    <defs>
     <path d="M 8.5 21.578125 
L 8.5 54.6875 
L 17.484375 54.6875 
L 17.484375 21.921875 
Q 17.484375 14.15625 20.5 10.265625 
Q 23.53125 6.390625 29.59375 6.390625 
Q 36.859375 6.390625 41.078125 11.03125 
Q 45.3125 15.671875 45.3125 23.6875 
L 45.3125 54.6875 
L 54.296875 54.6875 
L 54.296875 0 
L 45.3125 0 
L 45.3125 8.40625 
Q 42.046875 3.421875 37.71875 1 
Q 33.40625 -1.421875 27.6875 -1.421875 
Q 18.265625 -1.421875 13.375 4.4375 
Q 8.5 10.296875 8.5 21.578125 
z
M 31.109375 56 
z
" id="DejaVuSans-117"/>
     <path d="M 52 44.1875 
Q 55.375 50.25 60.0625 53.125 
Q 64.75 56 71.09375 56 
Q 79.640625 56 84.28125 50.015625 
Q 88.921875 44.046875 88.921875 33.015625 
L 88.921875 0 
L 79.890625 0 
L 79.890625 32.71875 
Q 79.890625 40.578125 77.09375 44.375 
Q 74.3125 48.1875 68.609375 48.1875 
Q 61.625 48.1875 57.5625 43.546875 
Q 53.515625 38.921875 53.515625 30.90625 
L 53.515625 0 
L 44.484375 0 
L 44.484375 32.71875 
Q 44.484375 40.625 41.703125 44.40625 
Q 38.921875 48.1875 33.109375 48.1875 
Q 26.21875 48.1875 22.15625 43.53125 
Q 18.109375 38.875 18.109375 30.90625 
L 18.109375 0 
L 9.078125 0 
L 9.078125 54.6875 
L 18.109375 54.6875 
L 18.109375 46.1875 
Q 21.1875 51.21875 25.484375 53.609375 
Q 29.78125 56 35.6875 56 
Q 41.65625 56 45.828125 52.96875 
Q 50 49.953125 52 44.1875 
z
" id="DejaVuSans-109"/>
     <path d="M 48.6875 27.296875 
Q 48.6875 37.203125 44.609375 42.84375 
Q 40.53125 48.484375 33.40625 48.484375 
Q 26.265625 48.484375 22.1875 42.84375 
Q 18.109375 37.203125 18.109375 27.296875 
Q 18.109375 17.390625 22.1875 11.75 
Q 26.265625 6.109375 33.40625 6.109375 
Q 40.53125 6.109375 44.609375 11.75 
Q 48.6875 17.390625 48.6875 27.296875 
z
M 18.109375 46.390625 
Q 20.953125 51.265625 25.265625 53.625 
Q 29.59375 56 35.59375 56 
Q 45.5625 56 51.78125 48.09375 
Q 58.015625 40.1875 58.015625 27.296875 
Q 58.015625 14.40625 51.78125 6.484375 
Q 45.5625 -1.421875 35.59375 -1.421875 
Q 29.59375 -1.421875 25.265625 0.953125 
Q 20.953125 3.328125 18.109375 8.203125 
L 18.109375 0 
L 9.078125 0 
L 9.078125 75.984375 
L 18.109375 75.984375 
z
" id="DejaVuSans-98"/>
     <path d="M 56.203125 29.59375 
L 56.203125 25.203125 
L 14.890625 25.203125 
Q 15.484375 15.921875 20.484375 11.0625 
Q 25.484375 6.203125 34.421875 6.203125 
Q 39.59375 6.203125 44.453125 7.46875 
Q 49.3125 8.734375 54.109375 11.28125 
L 54.109375 2.78125 
Q 49.265625 0.734375 44.1875 -0.34375 
Q 39.109375 -1.421875 33.890625 -1.421875 
Q 20.796875 -1.421875 13.15625 6.1875 
Q 5.515625 13.8125 5.515625 26.8125 
Q 5.515625 40.234375 12.765625 48.109375 
Q 20.015625 56 32.328125 56 
Q 43.359375 56 49.78125 48.890625 
Q 56.203125 41.796875 56.203125 29.59375 
z
M 47.21875 32.234375 
Q 47.125 39.59375 43.09375 43.984375 
Q 39.0625 48.390625 32.421875 48.390625 
Q 24.90625 48.390625 20.390625 44.140625 
Q 15.875 39.890625 15.1875 32.171875 
z
" id="DejaVuSans-101"/>
     <path d="M 41.109375 46.296875 
Q 39.59375 47.171875 37.8125 47.578125 
Q 36.03125 48 33.890625 48 
Q 26.265625 48 22.1875 43.046875 
Q 18.109375 38.09375 18.109375 28.8125 
L 18.109375 0 
L 9.078125 0 
L 9.078125 54.6875 
L 18.109375 54.6875 
L 18.109375 46.1875 
Q 20.953125 51.171875 25.484375 53.578125 
Q 30.03125 56 36.53125 56 
Q 37.453125 56 38.578125 55.875 
Q 39.703125 55.765625 41.0625 55.515625 
z
" id="DejaVuSans-114"/>
     <path id="DejaVuSans-32"/>
     <path d="M 30.609375 48.390625 
Q 23.390625 48.390625 19.1875 42.75 
Q 14.984375 37.109375 14.984375 27.296875 
Q 14.984375 17.484375 19.15625 11.84375 
Q 23.34375 6.203125 30.609375 6.203125 
Q 37.796875 6.203125 41.984375 11.859375 
Q 46.1875 17.53125 46.1875 27.296875 
Q 46.1875 37.015625 41.984375 42.703125 
Q 37.796875 48.390625 30.609375 48.390625 
z
M 30.609375 56 
Q 42.328125 56 49.015625 48.375 
Q 55.71875 40.765625 55.71875 27.296875 
Q 55.71875 13.875 49.015625 6.21875 
Q 42.328125 -1.421875 30.609375 -1.421875 
Q 18.84375 -1.421875 12.171875 6.21875 
Q 5.515625 13.875 5.515625 27.296875 
Q 5.515625 40.765625 12.171875 48.375 
Q 18.84375 56 30.609375 56 
z
" id="DejaVuSans-111"/>
     <path d="M 37.109375 75.984375 
L 37.109375 68.5 
L 28.515625 68.5 
Q 23.6875 68.5 21.796875 66.546875 
Q 19.921875 64.59375 19.921875 59.515625 
L 19.921875 54.6875 
L 34.71875 54.6875 
L 34.71875 47.703125 
L 19.921875 47.703125 
L 19.921875 0 
L 10.890625 0 
L 10.890625 47.703125 
L 2.296875 47.703125 
L 2.296875 54.6875 
L 10.890625 54.6875 
L 10.890625 58.5 
Q 10.890625 67.625 15.140625 71.796875 
Q 19.390625 75.984375 28.609375 75.984375 
z
" id="DejaVuSans-102"/>
     <path d="M 34.28125 27.484375 
Q 23.390625 27.484375 19.1875 25 
Q 14.984375 22.515625 14.984375 16.5 
Q 14.984375 11.71875 18.140625 8.90625 
Q 21.296875 6.109375 26.703125 6.109375 
Q 34.1875 6.109375 38.703125 11.40625 
Q 43.21875 16.703125 43.21875 25.484375 
L 43.21875 27.484375 
z
M 52.203125 31.203125 
L 52.203125 0 
L 43.21875 0 
L 43.21875 8.296875 
Q 40.140625 3.328125 35.546875 0.953125 
Q 30.953125 -1.421875 24.3125 -1.421875 
Q 15.921875 -1.421875 10.953125 3.296875 
Q 6 8.015625 6 15.921875 
Q 6 25.140625 12.171875 29.828125 
Q 18.359375 34.515625 30.609375 34.515625 
L 43.21875 34.515625 
L 43.21875 35.40625 
Q 43.21875 41.609375 39.140625 45 
Q 35.0625 48.390625 27.6875 48.390625 
Q 23 48.390625 18.546875 47.265625 
Q 14.109375 46.140625 10.015625 43.890625 
L 10.015625 52.203125 
Q 14.9375 54.109375 19.578125 55.046875 
Q 24.21875 56 28.609375 56 
Q 40.484375 56 46.34375 49.84375 
Q 52.203125 43.703125 52.203125 31.203125 
z
" id="DejaVuSans-97"/>
     <path d="M 54.890625 33.015625 
L 54.890625 0 
L 45.90625 0 
L 45.90625 32.71875 
Q 45.90625 40.484375 42.875 44.328125 
Q 39.84375 48.1875 33.796875 48.1875 
Q 26.515625 48.1875 22.3125 43.546875 
Q 18.109375 38.921875 18.109375 30.90625 
L 18.109375 0 
L 9.078125 0 
L 9.078125 54.6875 
L 18.109375 54.6875 
L 18.109375 46.1875 
Q 21.34375 51.125 25.703125 53.5625 
Q 30.078125 56 35.796875 56 
Q 45.21875 56 50.046875 50.171875 
Q 54.890625 44.34375 54.890625 33.015625 
z
" id="DejaVuSans-110"/>
     <path d="M 45.40625 46.390625 
L 45.40625 75.984375 
L 54.390625 75.984375 
L 54.390625 0 
L 45.40625 0 
L 45.40625 8.203125 
Q 42.578125 3.328125 38.25 0.953125 
Q 33.9375 -1.421875 27.875 -1.421875 
Q 17.96875 -1.421875 11.734375 6.484375 
Q 5.515625 14.40625 5.515625 27.296875 
Q 5.515625 40.1875 11.734375 48.09375 
Q 17.96875 56 27.875 56 
Q 33.9375 56 38.25 53.625 
Q 42.578125 51.265625 45.40625 46.390625 
z
M 14.796875 27.296875 
Q 14.796875 17.390625 18.875 11.75 
Q 22.953125 6.109375 30.078125 6.109375 
Q 37.203125 6.109375 41.296875 11.75 
Q 45.40625 17.390625 45.40625 27.296875 
Q 45.40625 37.203125 41.296875 42.84375 
Q 37.203125 48.484375 30.078125 48.484375 
Q 22.953125 48.484375 18.875 42.84375 
Q 14.796875 37.203125 14.796875 27.296875 
z
" id="DejaVuSans-100"/>
     <path d="M 9.421875 54.6875 
L 18.40625 54.6875 
L 18.40625 0 
L 9.421875 0 
z
M 9.421875 75.984375 
L 18.40625 75.984375 
L 18.40625 64.59375 
L 9.421875 64.59375 
z
" id="DejaVuSans-105"/>
     <path d="M 18.3125 70.21875 
L 18.3125 54.6875 
L 36.8125 54.6875 
L 36.8125 47.703125 
L 18.3125 47.703125 
L 18.3125 18.015625 
Q 18.3125 11.328125 20.140625 9.421875 
Q 21.96875 7.515625 27.59375 7.515625 
L 36.8125 7.515625 
L 36.8125 0 
L 27.59375 0 
Q 17.1875 0 13.234375 3.875 
Q 9.28125 7.765625 9.28125 18.015625 
L 9.28125 47.703125 
L 2.6875 47.703125 
L 2.6875 54.6875 
L 9.28125 54.6875 
L 9.28125 70.21875 
z
" id="DejaVuSans-116"/>
     <path d="M 44.28125 53.078125 
L 44.28125 44.578125 
Q 40.484375 46.53125 36.375 47.5 
Q 32.28125 48.484375 27.875 48.484375 
Q 21.1875 48.484375 17.84375 46.4375 
Q 14.5 44.390625 14.5 40.28125 
Q 14.5 37.15625 16.890625 35.375 
Q 19.28125 33.59375 26.515625 31.984375 
L 29.59375 31.296875 
Q 39.15625 29.25 43.1875 25.515625 
Q 47.21875 21.78125 47.21875 15.09375 
Q 47.21875 7.46875 41.1875 3.015625 
Q 35.15625 -1.421875 24.609375 -1.421875 
Q 20.21875 -1.421875 15.453125 -0.5625 
Q 10.6875 0.296875 5.421875 2 
L 5.421875 11.28125 
Q 10.40625 8.6875 15.234375 7.390625 
Q 20.0625 6.109375 24.8125 6.109375 
Q 31.15625 6.109375 34.5625 8.28125 
Q 37.984375 10.453125 37.984375 14.40625 
Q 37.984375 18.0625 35.515625 20.015625 
Q 33.0625 21.96875 24.703125 23.78125 
L 21.578125 24.515625 
Q 13.234375 26.265625 9.515625 29.90625 
Q 5.8125 33.546875 5.8125 39.890625 
Q 5.8125 47.609375 11.28125 51.796875 
Q 16.75 56 26.8125 56 
Q 31.78125 56 36.171875 55.265625 
Q 40.578125 54.546875 44.28125 53.078125 
z
" id="DejaVuSans-115"/>
     <path d="M 4.203125 54.6875 
L 13.1875 54.6875 
L 24.421875 12.015625 
L 35.59375 54.6875 
L 46.1875 54.6875 
L 57.421875 12.015625 
L 68.609375 54.6875 
L 77.59375 54.6875 
L 63.28125 0 
L 52.6875 0 
L 40.921875 44.828125 
L 29.109375 0 
L 18.5 0 
z
" id="DejaVuSans-119"/>
     <path d="M 54.890625 33.015625 
L 54.890625 0 
L 45.90625 0 
L 45.90625 32.71875 
Q 45.90625 40.484375 42.875 44.328125 
Q 39.84375 48.1875 33.796875 48.1875 
Q 26.515625 48.1875 22.3125 43.546875 
Q 18.109375 38.921875 18.109375 30.90625 
L 18.109375 0 
L 9.078125 0 
L 9.078125 75.984375 
L 18.109375 75.984375 
L 18.109375 46.1875 
Q 21.34375 51.125 25.703125 53.5625 
Q 30.078125 56 35.796875 56 
Q 45.21875 56 50.046875 50.171875 
Q 54.890625 44.34375 54.890625 33.015625 
z
" id="DejaVuSans-104"/>
     <path d="M 37.796875 64.3125 
L 12.890625 25.390625 
L 37.796875 25.390625 
z
M 35.203125 72.90625 
L 47.609375 72.90625 
L 47.609375 25.390625 
L 58.015625 25.390625 
L 58.015625 17.1875 
L 47.609375 17.1875 
L 47.609375 0 
L 37.796875 0 
L 37.796875 17.1875 
L 4.890625 17.1875 
L 4.890625 26.703125 
z
" id="DejaVuSans-52"/>
     <path d="M 72.703125 32.078125 
Q 68.453125 32.078125 66.03125 28.46875 
Q 63.625 24.859375 63.625 18.40625 
Q 63.625 12.0625 66.03125 8.421875 
Q 68.453125 4.78125 72.703125 4.78125 
Q 76.859375 4.78125 79.265625 8.421875 
Q 81.6875 12.0625 81.6875 18.40625 
Q 81.6875 24.8125 79.265625 28.4375 
Q 76.859375 32.078125 72.703125 32.078125 
z
M 72.703125 38.28125 
Q 80.421875 38.28125 84.953125 32.90625 
Q 89.5 27.546875 89.5 18.40625 
Q 89.5 9.28125 84.9375 3.921875 
Q 80.375 -1.421875 72.703125 -1.421875 
Q 64.890625 -1.421875 60.34375 3.921875 
Q 55.8125 9.28125 55.8125 18.40625 
Q 55.8125 27.59375 60.375 32.9375 
Q 64.9375 38.28125 72.703125 38.28125 
z
M 22.3125 68.015625 
Q 18.109375 68.015625 15.6875 64.375 
Q 13.28125 60.75 13.28125 54.390625 
Q 13.28125 47.953125 15.671875 44.328125 
Q 18.0625 40.71875 22.3125 40.71875 
Q 26.5625 40.71875 28.96875 44.328125 
Q 31.390625 47.953125 31.390625 54.390625 
Q 31.390625 60.6875 28.953125 64.34375 
Q 26.515625 68.015625 22.3125 68.015625 
z
M 66.40625 74.21875 
L 74.21875 74.21875 
L 28.609375 -1.421875 
L 20.796875 -1.421875 
z
M 22.3125 74.21875 
Q 30.03125 74.21875 34.609375 68.875 
Q 39.203125 63.53125 39.203125 54.390625 
Q 39.203125 45.171875 34.640625 39.84375 
Q 30.078125 34.515625 22.3125 34.515625 
Q 14.546875 34.515625 10.03125 39.859375 
Q 5.515625 45.21875 5.515625 54.390625 
Q 5.515625 63.484375 10.046875 68.84375 
Q 14.59375 74.21875 22.3125 74.21875 
z
" id="DejaVuSans-37"/>
     <path d="M 9.421875 75.984375 
L 18.40625 75.984375 
L 18.40625 0 
L 9.421875 0 
z
" id="DejaVuSans-108"/>
    </defs>
    <g transform="translate(542.01375 80.4)scale(0.12 -0.12)">
     <use xlink:href="#DejaVuSans-78"/>
     <use x="74.804688" xlink:href="#DejaVuSans-117"/>
     <use x="138.183594" xlink:href="#DejaVuSans-109"/>
     <use x="235.595703" xlink:href="#DejaVuSans-98"/>
     <use x="299.072266" xlink:href="#DejaVuSans-101"/>
     <use x="360.595703" xlink:href="#DejaVuSans-114"/>
     <use x="401.708984" xlink:href="#DejaVuSans-32"/>
     <use x="433.496094" xlink:href="#DejaVuSans-111"/>
     <use x="494.677734" xlink:href="#DejaVuSans-102"/>
     <use x="529.882812" xlink:href="#DejaVuSans-32"/>
     <use x="561.669922" xlink:href="#DejaVuSans-67"/>
     <use x="631.494141" xlink:href="#DejaVuSans-97"/>
     <use x="692.773438" xlink:href="#DejaVuSans-110"/>
     <use x="756.152344" xlink:href="#DejaVuSans-100"/>
     <use x="819.628906" xlink:href="#DejaVuSans-105"/>
     <use x="847.412109" xlink:href="#DejaVuSans-100"/>
     <use x="910.888672" xlink:href="#DejaVuSans-97"/>
     <use x="972.167969" xlink:href="#DejaVuSans-116"/>
     <use x="1011.376953" xlink:href="#DejaVuSans-101"/>
     <use x="1072.900391" xlink:href="#DejaVuSans-115"/>
     <use x="1125" xlink:href="#DejaVuSans-32"/>
     <use x="1156.787109" xlink:href="#DejaVuSans-80"/>
     <use x="1213.464844" xlink:href="#DejaVuSans-101"/>
     <use x="1274.988281" xlink:href="#DejaVuSans-114"/>
     <use x="1316.101562" xlink:href="#DejaVuSans-32"/>
     <use x="1347.888672" xlink:href="#DejaVuSans-83"/>
     <use x="1411.365234" xlink:href="#DejaVuSans-116"/>
     <use x="1450.574219" xlink:href="#DejaVuSans-97"/>
     <use x="1511.853516" xlink:href="#DejaVuSans-116"/>
     <use x="1551.0625" xlink:href="#DejaVuSans-101"/>
     <use x="1612.585938" xlink:href="#DejaVuSans-32"/>
     <use x="1644.373047" xlink:href="#DejaVuSans-119"/>
     <use x="1726.160156" xlink:href="#DejaVuSans-105"/>
     <use x="1753.943359" xlink:href="#DejaVuSans-116"/>
     <use x="1793.152344" xlink:href="#DejaVuSans-104"/>
     <use x="1856.53125" xlink:href="#DejaVuSans-32"/>
     <use x="1888.318359" xlink:href="#DejaVuSans-80"/>
     <use x="1942.246094" xlink:href="#DejaVuSans-65"/>
     <use x="2008.904297" xlink:href="#DejaVuSans-67"/>
     <use x="2078.728516" xlink:href="#DejaVuSans-32"/>
     <use x="2110.515625" xlink:href="#DejaVuSans-68"/>
     <use x="2187.517578" xlink:href="#DejaVuSans-111"/>
     <use x="2248.699219" xlink:href="#DejaVuSans-110"/>
     <use x="2312.078125" xlink:href="#DejaVuSans-97"/>
     <use x="2373.357422" xlink:href="#DejaVuSans-116"/>
     <use x="2412.566406" xlink:href="#DejaVuSans-105"/>
     <use x="2440.349609" xlink:href="#DejaVuSans-111"/>
     <use x="2501.53125" xlink:href="#DejaVuSans-110"/>
     <use x="2564.910156" xlink:href="#DejaVuSans-115"/>
     <use x="2617.009766" xlink:href="#DejaVuSans-32"/>
     <use x="2648.796875" xlink:href="#DejaVuSans-71"/>
     <use x="2726.287109" xlink:href="#DejaVuSans-114"/>
     <use x="2765.150391" xlink:href="#DejaVuSans-101"/>
     <use x="2826.673828" xlink:href="#DejaVuSans-97"/>
     <use x="2887.953125" xlink:href="#DejaVuSans-116"/>
     <use x="2927.162109" xlink:href="#DejaVuSans-101"/>
     <use x="2988.685547" xlink:href="#DejaVuSans-114"/>
     <use x="3029.798828" xlink:href="#DejaVuSans-32"/>
     <use x="3061.585938" xlink:href="#DejaVuSans-84"/>
     <use x="3122.669922" xlink:href="#DejaVuSans-104"/>
     <use x="3186.048828" xlink:href="#DejaVuSans-97"/>
     <use x="3247.328125" xlink:href="#DejaVuSans-110"/>
     <use x="3310.707031" xlink:href="#DejaVuSans-32"/>
     <use x="3342.494141" xlink:href="#DejaVuSans-52"/>
     <use x="3406.117188" xlink:href="#DejaVuSans-53"/>
     <use x="3469.740234" xlink:href="#DejaVuSans-37"/>
     <use x="3564.759766" xlink:href="#DejaVuSans-32"/>
     <use x="3596.546875" xlink:href="#DejaVuSans-111"/>
     <use x="3657.728516" xlink:href="#DejaVuSans-102"/>
     <use x="3692.933594" xlink:href="#DejaVuSans-32"/>
     <use x="3724.720703" xlink:href="#DejaVuSans-84"/>
     <use x="3768.804688" xlink:href="#DejaVuSans-111"/>
     <use x="3829.986328" xlink:href="#DejaVuSans-116"/>
     <use x="3869.195312" xlink:href="#DejaVuSans-97"/>
     <use x="3930.474609" xlink:href="#DejaVuSans-108"/>
     <use x="3958.257812" xlink:href="#DejaVuSans-32"/>
     <use x="3990.044922" xlink:href="#DejaVuSans-68"/>
     <use x="4067.046875" xlink:href="#DejaVuSans-111"/>
     <use x="4128.228516" xlink:href="#DejaVuSans-110"/>
     <use x="4191.607422" xlink:href="#DejaVuSans-97"/>
     <use x="4252.886719" xlink:href="#DejaVuSans-116"/>
     <use x="4292.095703" xlink:href="#DejaVuSans-105"/>
     <use x="4319.878906" xlink:href="#DejaVuSans-111"/>
     <use x="4381.060547" xlink:href="#DejaVuSans-110"/>
     <use x="4444.439453" xlink:href="#DejaVuSans-115"/>
    </g>
   </g>
   <g id="legend_1">
    <g id="patch_107">
     <path d="M 1330.3125 123.75625 
L 1418.6 123.75625 
Q 1420.6 123.75625 1420.6 121.75625 
L 1420.6 93.4 
Q 1420.6 91.4 1418.6 91.4 
L 1330.3125 91.4 
Q 1328.3125 91.4 1328.3125 93.4 
L 1328.3125 121.75625 
Q 1328.3125 123.75625 1330.3125 123.75625 
z
" style="fill:#ffffff;opacity:0.8;stroke:#cccccc;stroke-linejoin:miter;"/>
    </g>
    <g id="patch_108">
     <path d="M 1332.3125 102.998437 
L 1352.3125 102.998437 
L 1352.3125 95.998437 
L 1332.3125 95.998437 
z
" style="fill:#1f77b4;"/>
    </g>
    <g id="text_59">
     <!-- &gt;45% wins -->
     <defs>
      <path d="M 10.59375 49.21875 
L 10.59375 58.109375 
L 73.1875 35.40625 
L 73.1875 27.296875 
L 10.59375 4.59375 
L 10.59375 13.484375 
L 60.890625 31.296875 
z
" id="DejaVuSans-62"/>
     </defs>
     <g transform="translate(1360.3125 102.998437)scale(0.1 -0.1)">
      <use xlink:href="#DejaVuSans-62"/>
      <use x="83.789062" xlink:href="#DejaVuSans-52"/>
      <use x="147.412109" xlink:href="#DejaVuSans-53"/>
      <use x="211.035156" xlink:href="#DejaVuSans-37"/>
      <use x="306.054688" xlink:href="#DejaVuSans-32"/>
      <use x="337.841797" xlink:href="#DejaVuSans-119"/>
      <use x="419.628906" xlink:href="#DejaVuSans-105"/>
      <use x="447.412109" xlink:href="#DejaVuSans-110"/>
      <use x="510.791016" xlink:href="#DejaVuSans-115"/>
     </g>
    </g>
    <g id="patch_109">
     <path d="M 1332.3125 117.676562 
L 1352.3125 117.676562 
L 1352.3125 110.676562 
L 1332.3125 110.676562 
z
" style="fill:#ff7f0e;"/>
    </g>
    <g id="text_60">
     <!-- &gt;45% lost -->
     <g transform="translate(1360.3125 117.676562)scale(0.1 -0.1)">
      <use xlink:href="#DejaVuSans-62"/>
      <use x="83.789062" xlink:href="#DejaVuSans-52"/>
      <use x="147.412109" xlink:href="#DejaVuSans-53"/>
      <use x="211.035156" xlink:href="#DejaVuSans-37"/>
      <use x="306.054688" xlink:href="#DejaVuSans-32"/>
      <use x="337.841797" xlink:href="#DejaVuSans-108"/>
      <use x="365.625" xlink:href="#DejaVuSans-111"/>
      <use x="426.806641" xlink:href="#DejaVuSans-115"/>
      <use x="478.90625" xlink:href="#DejaVuSans-116"/>
     </g>
    </g>
   </g>
  </g>
 </g>
 <defs>
  <clipPath id="pd7428f8cd1">
   <rect height="543.6" width="1227.6" x="198" y="86.4"/>
  </clipPath>
 </defs>
</svg>
